<?xml version="1.0" encoding="utf-8"?>
<!-- Generator: Adobe Illustrator 26.0.3, SVG Export Plug-In . SVG Version: 6.00 Build 0)  -->
<svg version="1.1" id="Layer_1" xmlns="http://www.w3.org/2000/svg" xmlns:xlink="http://www.w3.org/1999/xlink" x="0px" y="0px"
	 viewBox="0 0 64 64" style="enable-background:new 0 0 64 64;" xml:space="preserve">
<style type="text/css">
	.st0{fill:#484848;}
</style>
<g id="Layer_3" transform="translate(-56.49872,470.00082)">
</g>
<g>
	<polygon class="st0" points="44.93,21.81 19.07,21.81 32,30.43 	"/>
	<polygon class="st0" points="48.16,40.44 48.16,23.03 37.71,29.99 	"/>
	<path class="st0" d="M32,2C15.43,2,2,15.43,2,32s13.43,30,30,30s30-13.43,30-30S48.57,2,32,2z M50.96,45.23H13.04V19.01h37.92
		V45.23z"/>
	<polygon class="st0" points="32,33.8 28.67,31.58 17.83,42.42 46.17,42.42 35.33,31.58 	"/>
	<polygon class="st0" points="15.84,23.03 15.84,40.44 26.29,29.99 	"/>
</g>
<g id="Layer_3_1_" transform="translate(-56.49872,470.00082)">
</g>
</svg>
