<?xml version="1.0" encoding="utf-8"?>
<!-- Generator: Adobe Illustrator 16.0.0, SVG Export Plug-In . SVG Version: 6.00 Build 0)  -->
<!DOCTYPE svg PUBLIC "-//W3C//DTD SVG 1.1//EN" "http://www.w3.org/Graphics/SVG/1.1/DTD/svg11.dtd">
<svg version="1.1" id="Layer_1" xmlns="http://www.w3.org/2000/svg" xmlns:xlink="http://www.w3.org/1999/xlink" x="0px" y="0px"
	 width="18px" height="64px" viewBox="0 0 18 64" enable-background="new 0 0 18 64" xml:space="preserve">
<rect fill="none" width="18" height="64"/>
<g>
	<path fill="#FF1919" d="M15.379,0v46.549v4.973c0,3.783-3.086,6.86-6.88,6.86c-3.79,0-6.875-3.076-6.877-6.858v-0.002v-4.973
		V13.707c0-0.448-0.361-0.81-0.811-0.81C0.363,12.897,0,13.259,0,13.707v37.814C0,56.198,3.812,60,8.499,60
		C13.188,60,17,56.198,17,51.521V0H15.379z"/>
	<path fill="#FF1919" d="M12.943,12.89c-0.45,0-0.811,0.364-0.811,0.81v22.594v3.782c0,1.327-0.724,2.488-1.796,3.117
		c-0.523,0.289-1.204,0.506-1.837,0.506c-0.632,0-1.312-0.217-1.835-0.505c-1.07-0.629-1.796-1.789-1.796-3.118v-3.783V0H3.247
		v40.075l0,0v0.002c0,1.456,0.6,2.77,1.566,3.72c-0.002,0-0.002,0.001-0.003,0.002c0.007,0.007,0.016,0.013,0.023,0.02
		c0.011,0.013,0.022,0.026,0.036,0.039c0.002-0.002,0.003-0.002,0.005-0.003c0.475,0.439,1.076,0.847,1.682,1.089
		c0.602,0.239,1.258,0.372,1.943,0.372c0.687,0,1.343-0.133,1.946-0.372c0.606-0.242,1.207-0.651,1.682-1.089
		c0.001,0,0.003,0,0.005,0.001c0.011-0.011,0.018-0.022,0.03-0.034c0.009-0.008,0.02-0.016,0.029-0.024
		c-0.002-0.001-0.004-0.001-0.004-0.002c0.708-0.698,1.221-1.589,1.443-2.592c0.081-0.363,0.125-0.742,0.125-1.128V13.699
		C13.756,13.254,13.391,12.89,12.943,12.89z"/>
</g>
</svg>
