<?xml version="1.0" encoding="utf-8"?>
<!-- Generator: Adobe Illustrator 26.0.3, SVG Export Plug-In . SVG Version: 6.00 Build 0)  -->
<svg version="1.1" id="Layer_1" xmlns="http://www.w3.org/2000/svg" xmlns:xlink="http://www.w3.org/1999/xlink" x="0px" y="0px"
	 viewBox="0 0 64 64" style="enable-background:new 0 0 64 64;" xml:space="preserve">
<style type="text/css">
	.st0{fill:#484848;}
</style>
<g>
	<path class="st0" d="M32,2C15.43,2,2,15.43,2,32s13.43,30,30,30s30-13.43,30-30S48.57,2,32,2z M23.72,46h-6.22V25.96h6.22V46z
		 M20.61,23.22c-2,0-3.61-1.62-3.61-3.61c0-1.99,1.61-3.61,3.61-3.61c1.99,0,3.6,1.62,3.6,3.61C24.21,21.61,22.6,23.22,20.61,23.22z
		 M47,46h-6.21v-9.75c0-2.32-0.04-5.31-3.23-5.31c-3.23,0-3.73,2.53-3.73,5.15V46h-6.21V25.96h5.96v2.74h0.09
		c0.83-1.58,2.86-3.24,5.88-3.24c6.3,0,7.46,4.15,7.46,9.55V46z"/>
</g>
<g id="Layer_3" transform="translate(-56.49872,470.00082)">
</g>
</svg>
