<?xml version="1.0" encoding="utf-8"?>
<!-- Generator: Adobe Illustrator 16.0.0, SVG Export Plug-In . SVG Version: 6.00 Build 0)  -->
<!DOCTYPE svg PUBLIC "-//W3C//DTD SVG 1.1//EN" "http://www.w3.org/Graphics/SVG/1.1/DTD/svg11.dtd">
<svg version="1.1" id="Layer_1" xmlns="http://www.w3.org/2000/svg" xmlns:xlink="http://www.w3.org/1999/xlink" x="0px" y="0px"
	 width="72px" height="144px" viewBox="0 0 72 144" enable-background="new 0 0 72 144" xml:space="preserve">
<g>
	<path d="M51.849,0v105.849v11.486c0,8.74-7.111,15.851-15.849,15.851c-8.735,0-15.844-7.11-15.847-15.847v-0.004v-11.486V40.848
		c0-1.034-0.833-1.871-1.867-1.871c-1.033,0-1.87,0.837-1.87,1.871v76.487c0,10.803,8.784,19.585,19.584,19.585
		c10.802,0,19.584-8.782,19.584-19.585V0H51.849z"/>
	<path d="M46.237,28.094c-1.036,0-1.87,0.839-1.87,1.869v52.193v8.738c0,3.063-1.668,5.747-4.139,7.198
		c-1.203,0.666-2.77,1.172-4.229,1.172c-1.456,0-3.026-0.501-4.228-1.166c-2.47-1.457-4.14-4.136-4.14-7.209v-8.735V0.001h-3.737
		V90.89v0.005v0.004c0.002,3.363,1.387,6.397,3.607,8.592c-0.003,0.003-0.006,0.005-0.007,0.005
		c0.017,0.016,0.037,0.029,0.053,0.046c0.029,0.027,0.055,0.06,0.084,0.09c0.005-0.005,0.009-0.005,0.012-0.007
		c1.096,1.015,2.48,1.953,3.875,2.515c1.386,0.552,2.899,0.862,4.48,0.862c1.582,0,3.093-0.311,4.481-0.862
		c1.395-0.562,2.78-1.502,3.873-2.517c0.005,0.002,0.009,0.004,0.013,0.004c0.025-0.023,0.045-0.052,0.07-0.076
		c0.021-0.021,0.047-0.039,0.067-0.06c-0.004-0.002-0.008-0.002-0.011-0.005c1.631-1.613,2.816-3.669,3.326-5.987
		c0.187-0.838,0.288-1.714,0.288-2.604V29.963C48.108,28.933,47.269,28.094,46.237,28.094z"/>
</g>
<rect fill="none" width="72" height="144"/>
</svg>
