<?xml version="1.0" encoding="utf-8"?>
<!-- Generator: Adobe Illustrator 16.0.0, SVG Export Plug-In . SVG Version: 6.00 Build 0)  -->
<!DOCTYPE svg PUBLIC "-//W3C//DTD SVG 1.1//EN" "http://www.w3.org/Graphics/SVG/1.1/DTD/svg11.dtd">
<svg version="1.1" id="Layer_1" xmlns="http://www.w3.org/2000/svg" xmlns:xlink="http://www.w3.org/1999/xlink" x="0px" y="0px"
	 width="1000px" height="300px" viewBox="0 0 1000 300" enable-background="new 0 0 1000 300" xml:space="preserve">
<text transform="matrix(1 0 0 1 65.4541 -586.771)" fill="#494849" font-family="'SourceSansPro-Regular'" font-size="205.8514">Seon Choi</text>
<text transform="matrix(1 0 0 1 107.7295 -197.5537)" fill="#494849" stroke="#494849" stroke-width="3" stroke-miterlimit="10" font-family="'WorkSans-Light'" font-size="154.3076">Seon Choil</text>
<text transform="matrix(1 0 0 1 215.7227 -878.771)" fill="#494849" font-family="'SourceSansPro-Light'" font-size="205.8514">Clients</text>
<g>
	<rect x="10" y="-370.293" fill="none" stroke="#494849" stroke-width="6" stroke-miterlimit="10" width="980" height="240"/>
	<rect x="491.5" y="-377.793" fill="#FFFFFF" stroke="#494849" stroke-width="6" stroke-miterlimit="10" width="15" height="15"/>
	
		<rect x="491.5" y="-137.794" fill="#FFFFFF" stroke="#494849" stroke-width="6" stroke-miterlimit="10" width="15" height="15.002"/>
	<rect x="982.5" y="-377.793" fill="#FFFFFF" stroke="#494849" stroke-width="6" stroke-miterlimit="10" width="15" height="15"/>
	
		<rect x="982.5" y="-137.794" fill="#FFFFFF" stroke="#494849" stroke-width="6" stroke-miterlimit="10" width="15" height="15.002"/>
	<rect x="2.5" y="-377.793" fill="#FFFFFF" stroke="#494849" stroke-width="6" stroke-miterlimit="10" width="15" height="15"/>
	<rect x="2.5" y="-137.794" fill="#FFFFFF" stroke="#494849" stroke-width="6" stroke-miterlimit="10" width="15" height="15.002"/>
	<rect x="2.5" y="-257.794" fill="#FFFFFF" stroke="#494849" stroke-width="6" stroke-miterlimit="10" width="15" height="15.002"/>
	
		<rect x="982.5" y="-257.794" fill="#FFFFFF" stroke="#494849" stroke-width="6" stroke-miterlimit="10" width="15" height="15.002"/>
</g>
<g>
	<path fill="#494849" d="M175.646,149.605c-25.135-4.352-29.899-10.012-29.899-18.932c0-11.129,10.682-18.604,26.581-18.604
		c15.68,0,24.168,5.54,29.276,19.126l0.727,1.919l10.024-7.981l-0.478-1.06c-6.959-15.338-20.316-23.115-39.704-23.115
		c-25.349,0-38.615,15.41-38.615,30.635c0,16.396,10.929,24.635,38.976,29.386c23.796,4.047,28.672,10.249,28.672,18.315
		c0,11.004-10.536,17.838-27.501,17.838c-17.205,0-29.013-7.313-33.247-20.591l-0.654-2.062l-10.066,8.013l0.396,1.021
		c6.058,15.714,21.879,24.729,43.417,24.729c23.739,0,39.684-11.819,39.684-29.409C213.234,162.497,202.346,154.026,175.646,149.605
		z"/>
	<path fill="#494849" d="M264.658,125.5c-23.216,0-37.072,15.465-37.072,41.372c0,25.519,14.501,41.372,37.844,41.372
		c15.573,0,26.646-6.104,32.919-18.136l0.682-1.311l-9.948-5.29l-0.637,1.491c-3.427,8.002-11.82,12.594-23.016,12.594
		c-15.097,0-24.503-9.341-26.007-25.701h59.873l0.135-1.345c0.208-2.111,0.311-4.067,0.311-5.975
		C299.741,140.838,285.976,125.5,264.658,125.5z M264.658,136.151c13.504,0,22.071,9.063,23.686,24.935H239.44
		C241.076,145.215,250.195,136.151,264.658,136.151z"/>
	<path fill="#494849" d="M352.239,125.5c-23.527,0-38.146,15.854-38.146,41.372c0,25.519,14.619,41.372,38.146,41.372
		c23.533,0,38.151-15.854,38.151-41.372C390.391,141.354,375.772,125.5,352.239,125.5z M352.239,197.744
		c-16.547,0-26.421-11.541-26.421-30.872c0-19.332,9.874-30.872,26.421-30.872s26.426,11.54,26.426,30.872
		C378.665,186.203,368.786,197.744,352.239,197.744z"/>
	<path fill="#494849" d="M447.798,125.5c-11.474,0-20.894,4.455-26.591,12.397l-0.34-10.863h-10.759v79.676h11.726v-44.287
		c0-18.051,12.979-26.271,25.044-26.271c9.188,0,20.135,3.865,20.135,22.283v48.275h11.726v-51.035
		C478.738,137.062,466.881,125.5,447.798,125.5z"/>
	<path fill="#494849" d="M625.679,175.78c-4.352,13.768-15.172,21.353-30.484,21.353c-21.975,0-35.627-16.298-35.627-42.532
		s13.83-42.53,36.09-42.53c14.7,0,24.071,6.396,28.652,19.555l0.546,1.553l11.327-5.26l-0.471-1.288
		c-6.271-17.034-19.953-25.671-40.671-25.671c-28.859,0-47.508,21.055-47.508,53.642s18.71,53.644,47.661,53.644
		c20.125,0,35.79-10.582,41.904-28.309l0.477-1.372l-11.425-4.282L625.679,175.78z"/>
	<path fill="#494849" d="M692.438,125.5c-11.121,0-20.311,4.28-25.964,11.922V91.756h-11.726V206.71h11.726v-44.133
		c0-18.156,12.984-26.426,25.044-26.426c9.188,0,20.135,3.865,20.135,22.283v48.275h11.726v-51.189
		C723.378,137.005,711.526,125.5,692.438,125.5z"/>
	<path fill="#494849" d="M780.482,125.5c-23.533,0-38.152,15.854-38.152,41.372c0,25.519,14.619,41.372,38.152,41.372
		c23.527,0,38.146-15.854,38.146-41.372C818.628,141.354,804.01,125.5,780.482,125.5z M780.482,197.744
		c-16.547,0-26.427-11.541-26.427-30.872c0-19.332,9.88-30.872,26.427-30.872s26.42,11.54,26.42,30.872
		C806.902,186.203,797.029,197.744,780.482,197.744z"/>
	<path fill="#494849" d="M844.285,98.045c-5.206,0-8.7,3.435-8.7,8.546c0,5.113,3.494,8.547,8.7,8.547
		c5.033,0,8.546-3.514,8.546-8.547C852.831,101.557,849.318,98.045,844.285,98.045z"/>
	<path fill="#494849" d="M867.814,194.938c-3.597,1.438-5.766,2.041-9.878,2.041c-5.218,0-7.866-1.668-7.866-10.78v-59.164h-11.726
		v60.084c0,14.215,5.957,21.126,18.215,21.126c4.032,0,7.952-0.756,11.032-2.124l0.735-0.326l1.936-11.838L867.814,194.938z"/>
</g>
<g>
	<polygon fill="none" points="984.082,160.438 976.629,160.438 976.629,139.561 984.082,139.561 984.082,41.155 976.629,41.155 
		976.629,33.699 509.441,33.699 509.441,41.155 488.57,41.155 488.57,33.699 23.377,33.699 23.377,41.155 15.918,41.155 
		15.918,139.561 23.377,139.561 23.377,160.438 15.918,160.438 15.918,258.84 23.377,258.84 23.377,266.299 488.57,266.299 
		488.57,258.84 509.441,258.84 509.441,266.299 976.629,266.299 976.629,258.84 984.082,258.84 	"/>
	<path fill="#494849" d="M997.5,41.155V20.281h-20.871v7.456H509.441v-7.456H488.57v7.456H23.377v-7.456H2.5v20.874h7.453v98.405
		H2.5v20.878h7.453v98.401H2.5v20.879h20.877v-7.455H488.57v7.455h20.871v-7.455h467.188v7.455H997.5V258.84h-7.453v-98.401h7.453
		v-20.878h-7.453V41.155H997.5z M491.553,23.264h14.906v14.909h-14.906V23.264z M5.482,38.173V23.264h14.912v14.909H5.482z
		 M5.482,157.457v-14.914h14.912v14.914H5.482z M20.395,276.736H5.482v-14.914h14.912V276.736z M506.459,276.736h-14.906v-14.914
		h14.906V276.736z M976.629,266.299H509.441v-7.459H488.57v7.459H23.377v-7.459h-7.459v-98.401h7.459v-20.878h-7.459V41.155h7.459
		v-7.456H488.57v7.456h20.871v-7.456h467.188v7.456h7.453v98.405h-7.453v20.878h7.453v98.401h-7.453V266.299z M994.518,261.822
		v14.914h-14.912v-14.914H994.518z M994.518,142.542v14.914h-14.912v-14.914H994.518z M979.605,38.173V23.264h14.912v14.909H979.605
		z"/>
</g>
<g>
	<path fill="#F1F0F0" d="M181.949,789.014l-18.487-8.137l-0.419-0.201c-8.856-4.059-19.882-9.104-19.882-22.068
		c0-12.445,10.067-20.486,25.665-20.486c10.878,0,20.325,4.029,28.093,11.988l1.01,1.049l6.561-7.57l-0.797-0.893
		c-8.899-9.564-21.613-15.049-34.866-15.049c-21.369,0-36.863,13.174-36.863,31.33c0,17.934,12.941,26.025,25.593,31.564
		l18.491,8.338c13.086,5.842,21.053,10.381,21.053,24.295c0,14.025-11.398,23.076-29.013,23.076c-13,0-25.658-5.834-34.687-16.012
		l-0.991-1.102L125,837.029l0.828,0.928c7.661,8.568,21.236,18.771,42.259,18.771c23.797,0,40.394-14.027,40.394-34.102
		C208.48,802.523,194.805,794.732,181.949,789.014z"/>
	<path fill="#F1F0F0" d="M263.024,760.773c-19.413,0-40.038,16.879-40.038,48.156c0,28.137,17.439,47.799,42.427,47.799
		c12.896,0,20.906-4.213,28.638-8.896l1.104-0.658l-4.662-8.783l-1.249,0.898c-7.271,5.26-14.604,7.703-23.09,7.703
		c-18.475,0-31.231-14.324-32.104-35.787h63.781l0.194-1.129c0.373-2.336,0.373-4.641,0.373-6.879
		C298.398,776.623,285.169,760.773,263.024,760.773z M287.941,801.85H234.16c2.146-18.541,13.929-31.354,29.029-31.354
		C278.806,770.496,287.555,781.619,287.941,801.85z"/>
	<path fill="#F1F0F0" d="M353.49,760.773c-11.16,0-21.41,4.492-28.878,12.668c-8.026,8.789-12.257,21.066-12.257,35.488
		c0,14.266,4.232,26.432,12.259,35.166c7.483,8.146,17.733,12.633,28.876,12.633c11.225,0,21.533-4.486,29.012-12.631
		c8.038-8.727,12.315-20.891,12.315-35.168C394.817,780.58,377.82,760.773,353.49,760.773z M353.49,846.813
		c-17.619,0-29.919-15.584-29.919-37.883c0-22.514,12.3-38.242,29.919-38.242c17.438,0,30.109,16.084,30.109,38.242
		C383.6,830.877,370.928,846.813,353.49,846.813z"/>
	<path fill="#F1F0F0" d="M458.958,760.773c-12.504,0-21.779,6.883-29.873,14.711l-0.671-12.492h-9.665v91.516h10.835v-67.781
		c10.395-10.516,17.59-15.861,27.695-15.861c13.327,0,19.006,7.9,19.006,26.41v57.232h10.862v-58.344
		C487.147,772.348,477.916,760.773,458.958,760.773z"/>
	<path fill="#F1F0F0" d="M630.023,831.711c-9.099,10.053-18.313,14.539-29.897,14.539c-25.415,0-41.194-20.82-41.194-54.338
		c0-33.188,16.075-53.791,41.938-53.791c9.956,0,18.574,4.068,25.626,12.113l1.027,1.158l6.782-7.775l-0.756-0.877
		c-3.882-4.545-14.833-15.094-32.864-15.094c-15.691,0-29.052,6.035-38.622,17.434c-9.637,11.486-14.727,27.684-14.727,46.832
		c0,38.764,21.084,64.816,52.434,64.816c14.725,0,26.58-5.68,37.274-17.863l0.809-0.908l-6.835-7.332L630.023,831.711z"/>
	<path fill="#F1F0F0" d="M698.765,760.773c-12.172,0-21.355,6.586-29.371,14.24v-56.252h-10.836v135.746h10.836v-67.781
		c10.384-10.516,17.59-15.861,27.695-15.861c13.327,0,19.006,7.9,19.006,26.41v57.232h10.835v-58.344
		C726.93,772.348,717.72,760.773,698.765,760.773z"/>
	<path fill="#F1F0F0" d="M789.976,760.773c-11.165,0-21.417,4.492-28.858,12.668c-8.045,8.789-12.283,21.066-12.283,35.488
		c0,14.266,4.24,26.432,12.285,35.166c7.456,8.146,17.707,12.633,28.856,12.633c11.224,0,21.533-4.486,29.013-12.631
		c8.057-8.727,12.313-20.891,12.313-35.168C831.302,780.58,814.306,760.773,789.976,760.773z M789.976,846.813
		c-17.627,0-29.926-15.584-29.926-37.883c0-22.514,12.299-38.242,29.926-38.242c17.437,0,30.106,16.084,30.106,38.242
		C820.082,830.877,807.412,846.813,789.976,846.813z"/>
	<path fill="#F1F0F0" d="M860.828,726.904c-5.065,0-8.751,3.68-8.751,8.75c0,4.887,3.765,8.568,8.751,8.568
		c4.994,0,8.75-3.682,8.75-8.568C869.578,730.584,865.898,726.904,860.828,726.904z"/>
	<path fill="#F1F0F0" d="M872.975,846.201l-1.297,0.27c-1.723,0.342-2.371,0.342-3.061,0.342c-2.296,0-2.551-3.07-2.551-4.389
		v-79.432h-10.833v78.324c0,10.223,4.118,15.412,12.259,15.412c2.959,0,4.814-0.482,6.364-1.006l1.144-0.385L872.975,846.201z"/>
</g>
<g>
	<path fill="#F1F0F0" d="M989.555,915.883H10.445V671.605h979.109V915.883z M16.404,909.924h967.191V677.561H16.404V909.924z"/>
	<g>
		<rect x="491.562" y="667.137" fill="#494849" width="14.891" height="14.894"/>
		<path fill="#F1F0F0" d="M509.432,685.01h-20.85v-20.854h20.85V685.01z M494.541,679.051h8.932v-8.936h-8.932V679.051z"/>
	</g>
	<g>
		<rect x="491.562" y="905.457" fill="#494849" width="14.891" height="14.9"/>
		<path fill="#F1F0F0" d="M509.432,923.33h-20.85v-20.852h20.85V923.33z M494.541,917.377h8.932v-8.939h-8.932V917.377z"/>
	</g>
	<g>
		<rect x="979.123" y="667.137" fill="#494849" width="14.897" height="14.894"/>
		<path fill="#F1F0F0" d="M997,685.01h-20.852v-20.854H997V685.01z M982.103,679.051h8.938v-8.936h-8.938V679.051z"/>
	</g>
	<g>
		<rect x="979.123" y="905.457" fill="#494849" width="14.897" height="14.9"/>
		<path fill="#F1F0F0" d="M997,923.33h-20.852v-20.852H997V923.33z M982.103,917.377h8.938v-8.939h-8.938V917.377z"/>
	</g>
	<g>
		<rect x="5.979" y="667.137" fill="#494849" width="14.897" height="14.894"/>
		<path fill="#F1F0F0" d="M23.855,685.01H3v-20.854h20.855V685.01z M8.959,679.051h8.938v-8.936H8.959V679.051z"/>
	</g>
	<g>
		<rect x="5.979" y="905.457" fill="#494849" width="14.897" height="14.9"/>
		<path fill="#F1F0F0" d="M23.855,923.33H3v-20.852h20.855V923.33z M8.959,917.377h8.938v-8.939H8.959V917.377z"/>
	</g>
	<g>
		<rect x="5.979" y="786.295" fill="#494849" width="14.897" height="14.899"/>
		<path fill="#F1F0F0" d="M23.855,804.172H3v-20.855h20.855V804.172z M8.959,798.215h8.938v-8.94H8.959V798.215z"/>
	</g>
	<g>
		<rect x="979.123" y="786.295" fill="#494849" width="14.897" height="14.899"/>
		<path fill="#F1F0F0" d="M997,804.172h-20.852v-20.855H997V804.172z M982.103,798.215h8.938v-8.94h-8.938V798.215z"/>
	</g>
</g>
</svg>
