<?xml version="1.0" encoding="utf-8"?>
<!-- Generator: Adobe Illustrator 16.0.0, SVG Export Plug-In . SVG Version: 6.00 Build 0)  -->
<!DOCTYPE svg PUBLIC "-//W3C//DTD SVG 1.1//EN" "http://www.w3.org/Graphics/SVG/1.1/DTD/svg11.dtd">
<svg version="1.1" id="Layer_1" xmlns="http://www.w3.org/2000/svg" xmlns:xlink="http://www.w3.org/1999/xlink" x="0px" y="0px"
	 width="1000px" height="300px" viewBox="0 0 1000 300" enable-background="new 0 0 1000 300" xml:space="preserve">
<text transform="matrix(1 0 0 1 65.4541 -586.771)" fill="#494849" font-family="'SourceSansPro-Regular'" font-size="205.8514">Seon Choi</text>
<text transform="matrix(1 0 0 1 50.8389 -184.771)" fill="#494849" stroke="#494849" stroke-width="3" stroke-miterlimit="10" font-family="'SourceSansPro-Light'" font-size="205.8514">Seon Choil</text>
<text transform="matrix(1 0 0 1 215.7227 -878.771)" fill="#494849" font-family="'SourceSansPro-Light'" font-size="205.8514">Clients</text>
<g>
	<rect x="10" y="-370.293" fill="none" stroke="#494849" stroke-width="6" stroke-miterlimit="10" width="980" height="240"/>
	<rect x="491.5" y="-377.793" fill="#FFFFFF" stroke="#494849" stroke-width="6" stroke-miterlimit="10" width="15" height="15"/>
	
		<rect x="491.5" y="-137.794" fill="#FFFFFF" stroke="#494849" stroke-width="6" stroke-miterlimit="10" width="15" height="15.002"/>
	<rect x="982.5" y="-377.793" fill="#FFFFFF" stroke="#494849" stroke-width="6" stroke-miterlimit="10" width="15" height="15"/>
	
		<rect x="982.5" y="-137.794" fill="#FFFFFF" stroke="#494849" stroke-width="6" stroke-miterlimit="10" width="15" height="15.002"/>
	<rect x="2.5" y="-377.793" fill="#FFFFFF" stroke="#494849" stroke-width="6" stroke-miterlimit="10" width="15" height="15"/>
	<rect x="2.5" y="-137.794" fill="#FFFFFF" stroke="#494849" stroke-width="6" stroke-miterlimit="10" width="15" height="15.002"/>
	<rect x="2.5" y="-257.794" fill="#FFFFFF" stroke="#494849" stroke-width="6" stroke-miterlimit="10" width="15" height="15.002"/>
	
		<rect x="982.5" y="-257.794" fill="#FFFFFF" stroke="#494849" stroke-width="6" stroke-miterlimit="10" width="15" height="15.002"/>
</g>
<g>
	<path fill="#F1F0F0" d="M181.949,145.27l-18.487-8.138l-0.419-0.2c-8.856-4.059-19.882-9.104-19.882-22.068
		c0-12.446,10.067-20.487,25.665-20.487c10.878,0,20.325,4.03,28.093,11.988l1.01,1.049l6.561-7.569l-0.797-0.893
		c-8.899-9.565-21.613-15.049-34.866-15.049c-21.369,0-36.863,13.173-36.863,31.33c0,17.934,12.941,26.025,25.593,31.564
		l18.491,8.338c13.086,5.841,21.053,10.381,21.053,24.294c0,14.025-11.398,23.077-29.013,23.077c-13,0-25.658-5.835-34.687-16.013
		l-0.991-1.102L125,193.285l0.828,0.928c7.661,8.567,21.236,18.771,42.259,18.771c23.797,0,40.394-14.026,40.394-34.101
		C208.48,158.779,194.805,150.988,181.949,145.27z"/>
	<path fill="#F1F0F0" d="M263.024,117.028c-19.413,0-40.038,16.88-40.038,48.156c0,28.137,17.439,47.799,42.427,47.799
		c12.896,0,20.906-4.213,28.638-8.896l1.104-0.657l-4.662-8.784l-1.249,0.899c-7.271,5.26-14.604,7.703-23.09,7.703
		c-18.475,0-31.231-14.324-32.104-35.787h63.781l0.194-1.129c0.373-2.336,0.373-4.641,0.373-6.88
		C298.398,132.878,285.169,117.028,263.024,117.028z M287.941,158.104H234.16c2.146-18.54,13.929-31.353,29.029-31.353
		C278.806,126.752,287.555,137.875,287.941,158.104z"/>
	<path fill="#F1F0F0" d="M353.49,117.028c-11.16,0-21.41,4.493-28.878,12.668c-8.026,8.79-12.257,21.066-12.257,35.488
		c0,14.266,4.232,26.432,12.259,35.167c7.483,8.146,17.733,12.632,28.876,12.632c11.225,0,21.533-4.485,29.012-12.631
		c8.038-8.727,12.315-20.891,12.315-35.168C394.817,136.835,377.82,117.028,353.49,117.028z M353.49,203.068
		c-17.619,0-29.919-15.584-29.919-37.884c0-22.514,12.3-38.242,29.919-38.242c17.438,0,30.109,16.085,30.109,38.242
		C383.6,187.132,370.928,203.068,353.49,203.068z"/>
	<path fill="#F1F0F0" d="M458.958,117.028c-12.504,0-21.779,6.883-29.873,14.711l-0.671-12.491h-9.665v91.515h10.835v-67.78
		c10.395-10.517,17.59-15.861,27.695-15.861c13.327,0,19.006,7.9,19.006,26.41v57.231h10.862v-58.344
		C487.147,128.603,477.916,117.028,458.958,117.028z"/>
	<path fill="#F1F0F0" d="M630.023,187.966c-9.099,10.054-18.313,14.54-29.897,14.54c-25.415,0-41.194-20.821-41.194-54.338
		c0-33.188,16.075-53.792,41.938-53.792c9.956,0,18.574,4.069,25.626,12.114l1.027,1.158l6.782-7.775l-0.756-0.877
		c-3.882-4.545-14.833-15.094-32.864-15.094c-15.691,0-29.052,6.035-38.622,17.434c-9.637,11.486-14.727,27.683-14.727,46.832
		c0,38.764,21.084,64.815,52.434,64.815c14.725,0,26.58-5.68,37.274-17.862l0.809-0.909l-6.835-7.332L630.023,187.966z"/>
	<path fill="#F1F0F0" d="M698.765,117.028c-12.172,0-21.355,6.586-29.371,14.24V75.017h-10.836v135.746h10.836v-67.78
		c10.384-10.517,17.59-15.861,27.695-15.861c13.327,0,19.006,7.9,19.006,26.41v57.231h10.835v-58.344
		C726.93,128.603,717.72,117.028,698.765,117.028z"/>
	<path fill="#F1F0F0" d="M789.976,117.028c-11.165,0-21.417,4.493-28.858,12.668c-8.045,8.79-12.283,21.066-12.283,35.488
		c0,14.266,4.24,26.432,12.285,35.167c7.456,8.146,17.707,12.632,28.856,12.632c11.224,0,21.533-4.485,29.013-12.631
		c8.057-8.727,12.313-20.891,12.313-35.168C831.302,136.835,814.306,117.028,789.976,117.028z M789.976,203.068
		c-17.627,0-29.926-15.584-29.926-37.884c0-22.514,12.299-38.242,29.926-38.242c17.437,0,30.106,16.085,30.106,38.242
		C820.082,187.132,807.412,203.068,789.976,203.068z"/>
	<path fill="#F1F0F0" d="M860.828,83.16c-5.065,0-8.751,3.68-8.751,8.75c0,4.886,3.765,8.567,8.751,8.567
		c4.994,0,8.75-3.682,8.75-8.567C869.578,86.84,865.898,83.16,860.828,83.16z"/>
	<path fill="#F1F0F0" d="M872.975,202.457l-1.297,0.27c-1.723,0.342-2.371,0.342-3.061,0.342c-2.296,0-2.551-3.071-2.551-4.389
		v-79.432h-10.833v78.323c0,10.224,4.118,15.412,12.259,15.412c2.959,0,4.814-0.482,6.364-1.005l1.144-0.385L872.975,202.457z"/>
</g>
<g>
	<path fill="#F1F0F0" d="M989.555,272.139H10.445V27.861h979.109V272.139z M16.404,266.18h967.191V33.816H16.404V266.18z"/>
	<g>
		<rect x="491.562" y="23.392" fill="#494849" width="14.891" height="14.894"/>
		<path fill="#F1F0F0" d="M509.432,41.265h-20.85V20.412h20.85V41.265z M494.541,35.306h8.932v-8.935h-8.932V35.306z"/>
	</g>
	<g>
		<rect x="491.562" y="261.713" fill="#494849" width="14.891" height="14.899"/>
		<path fill="#F1F0F0" d="M509.432,279.586h-20.85v-20.853h20.85V279.586z M494.541,273.633h8.932v-8.94h-8.932V273.633z"/>
	</g>
	<g>
		<rect x="979.123" y="23.392" fill="#494849" width="14.897" height="14.894"/>
		<path fill="#F1F0F0" d="M997,41.265h-20.852V20.412H997V41.265z M982.103,35.306h8.938v-8.935h-8.938V35.306z"/>
	</g>
	<g>
		<rect x="979.123" y="261.713" fill="#494849" width="14.897" height="14.899"/>
		<path fill="#F1F0F0" d="M997,279.586h-20.852v-20.853H997V279.586z M982.103,273.633h8.938v-8.94h-8.938V273.633z"/>
	</g>
	<g>
		<rect x="5.979" y="23.392" fill="#494849" width="14.897" height="14.894"/>
		<path fill="#F1F0F0" d="M23.855,41.265H3V20.412h20.855V41.265z M8.959,35.306h8.938v-8.935H8.959V35.306z"/>
	</g>
	<g>
		<rect x="5.979" y="261.713" fill="#494849" width="14.897" height="14.899"/>
		<path fill="#F1F0F0" d="M23.855,279.586H3v-20.853h20.855V279.586z M8.959,273.633h8.938v-8.94H8.959V273.633z"/>
	</g>
	<g>
		<rect x="5.979" y="142.55" fill="#494849" width="14.897" height="14.899"/>
		<path fill="#F1F0F0" d="M23.855,160.427H3v-20.855h20.855V160.427z M8.959,154.47h8.938v-8.94H8.959V154.47z"/>
	</g>
	<g>
		<rect x="979.123" y="142.55" fill="#494849" width="14.897" height="14.899"/>
		<path fill="#F1F0F0" d="M997,160.427h-20.852v-20.855H997V160.427z M982.103,154.47h8.938v-8.94h-8.938V154.47z"/>
	</g>
</g>
<g>
	<path fill="#494849" d="M169.229,505.672l-19.229-8.463L149.567,497c-9.214-4.221-20.682-9.467-20.682-22.952
		c0-12.942,10.472-21.305,26.696-21.305c11.309,0,21.134,4.189,29.217,12.467l1.05,1.089l6.823-7.871l-0.83-0.928
		c-9.259-9.947-22.478-15.651-36.26-15.651c-22.227,0-38.344,13.7-38.344,32.585c0,18.65,13.462,27.064,26.622,32.826l19.227,8.672
		c13.609,6.072,21.898,10.796,21.898,25.268c0,14.582-11.853,23.999-30.174,23.999c-13.521,0-26.683-6.07-36.075-16.653l-1.03-1.148
		L110,555.607l0.862,0.965c7.967,8.909,22.088,19.521,43.949,19.521c24.746,0,42.01-14.588,42.01-35.466
		C196.821,519.723,182.595,511.619,169.229,505.672z"/>
	<path fill="#494849" d="M253.546,476.301c-20.191,0-41.642,17.556-41.642,50.082c0,29.262,18.14,49.711,44.122,49.711
		c13.413,0,21.748-4.382,29.787-9.252l1.146-0.683l-4.849-9.137l-1.297,0.937c-7.564,5.469-15.191,8.01-24.017,8.01
		c-19.209,0-32.479-14.896-33.386-37.219h66.332l0.202-1.173c0.391-2.43,0.391-4.826,0.391-7.155
		C290.337,492.785,276.573,476.301,253.546,476.301z M279.456,519.019h-55.931c2.229-19.28,14.487-32.607,30.191-32.607
		C269.96,486.411,279.058,497.98,279.456,519.019z"/>
	<path fill="#494849" d="M347.629,476.301c-11.606,0-22.268,4.671-30.034,13.176c-8.344,9.139-12.747,21.908-12.747,36.906
		c0,14.838,4.405,27.487,12.749,36.573c7.782,8.471,18.443,13.138,30.032,13.138c11.674,0,22.395-4.666,30.173-13.137
		c8.363-9.074,12.808-21.725,12.808-36.574C390.609,496.899,372.934,476.301,347.629,476.301z M347.629,565.783
		c-18.326,0-31.117-16.207-31.117-39.4c0-23.415,12.791-39.771,31.117-39.771c18.138,0,31.313,16.729,31.313,39.771
		C378.942,549.208,365.767,565.783,347.629,565.783z"/>
	<path fill="#494849" d="M457.313,476.301c-13.001,0-22.648,7.156-31.062,15.299l-0.7-12.988h-10.05v95.172h11.265v-70.49
		c10.811-10.937,18.295-16.496,28.807-16.496c13.859,0,19.765,8.217,19.765,27.465v59.521h11.293v-60.678
		C486.631,488.336,477.029,476.301,457.313,476.301z"/>
	<path fill="#494849" d="M635.223,550.076c-9.459,10.454-19.043,15.122-31.093,15.122c-26.427,0-42.839-21.656-42.839-56.513
		c0-34.516,16.717-55.942,43.61-55.942c10.357,0,19.319,4.229,26.656,12.596l1.067,1.208l7.052-8.089l-0.786-0.913
		c-4.036-4.725-15.428-15.696-34.18-15.696c-16.321,0-30.215,6.276-40.166,18.131c-10.021,11.947-15.317,28.79-15.317,48.706
		c0,40.316,21.93,67.408,54.531,67.408c15.315,0,27.642-5.906,38.768-18.576l0.842-0.946l-7.112-7.627L635.223,550.076z"/>
	<path fill="#494849" d="M706.715,476.301c-12.662,0-22.208,6.85-30.547,14.809v-58.502h-11.266v141.176h11.266v-70.49
		c10.799-10.937,18.295-16.496,28.807-16.496c13.859,0,19.765,8.217,19.765,27.465v59.521h11.265v-60.678
		C736.004,488.336,726.431,476.301,706.715,476.301z"/>
	<path fill="#494849" d="M801.57,476.301c-11.605,0-22.267,4.671-30.008,13.176c-8.369,9.139-12.773,21.908-12.773,36.906
		c0,14.838,4.406,27.487,12.775,36.573c7.756,8.471,18.417,13.138,30.006,13.138c11.674,0,22.396-4.666,30.174-13.137
		c8.383-9.074,12.807-21.725,12.807-36.574C844.551,496.899,826.875,476.301,801.57,476.301z M801.57,565.783
		c-18.326,0-31.116-16.207-31.116-39.4c0-23.415,12.79-39.771,31.116-39.771c18.138,0,31.314,16.729,31.314,39.771
		C832.885,549.208,819.708,565.783,801.57,565.783z"/>
	<path fill="#494849" d="M875.262,441.078c-5.271,0-9.099,3.828-9.099,9.098c0,5.084,3.915,8.913,9.099,8.913
		c5.191,0,9.098-3.829,9.098-8.913C884.359,444.906,880.533,441.078,875.262,441.078z"/>
	<path fill="#494849" d="M887.895,565.146l-1.354,0.279c-1.785,0.357-2.461,0.357-3.181,0.357c-2.385,0-2.651-3.197-2.651-4.563
		v-82.608h-11.267v81.453c0,10.634,4.281,16.029,12.749,16.029c3.077,0,5.006-0.502,6.621-1.045l1.188-0.4L887.895,565.146z"/>
</g>
<g>
	<path fill="#494849" d="M993,634.599H7V388.598h986V634.599z M13,628.599h974V394.598H13V628.599z"/>
	<g>
		<rect x="491.5" y="384.098" fill="#FFFFFF" width="15" height="15"/>
		<path fill="#494849" d="M509.5,402.098h-21v-21h21V402.098z M494.5,396.098h9v-9h-9V396.098z"/>
	</g>
	<g>
		<rect x="491.5" y="624.098" fill="#FFFFFF" width="15" height="15.002"/>
		<path fill="#494849" d="M509.5,642.1h-21v-21.002h21V642.1z M494.5,636.1h9v-9.002h-9V636.1z"/>
	</g>
	<g>
		<rect x="982.5" y="384.098" fill="#FFFFFF" width="15" height="15"/>
		<path fill="#494849" d="M1000.5,402.098h-21v-21h21V402.098z M985.5,396.098h9v-9h-9V396.098z"/>
	</g>
	<g>
		<rect x="982.5" y="624.098" fill="#FFFFFF" width="15" height="15.002"/>
		<path fill="#494849" d="M1000.5,642.1h-21v-21.002h21V642.1z M985.5,636.1h9v-9.002h-9V636.1z"/>
	</g>
	<g>
		<rect x="2.5" y="384.098" fill="#FFFFFF" width="15" height="15"/>
		<path fill="#494849" d="M20.5,402.098h-21v-21h21V402.098z M5.5,396.098h9v-9h-9V396.098z"/>
	</g>
	<g>
		<rect x="2.5" y="624.098" fill="#FFFFFF" width="15" height="15.002"/>
		<path fill="#494849" d="M20.5,642.1h-21v-21.002h21V642.1z M5.5,636.1h9v-9.002h-9V636.1z"/>
	</g>
	<g>
		<rect x="2.5" y="504.098" fill="#FFFFFF" width="15" height="15.002"/>
		<path fill="#494849" d="M20.5,522.1h-21v-21.002h21V522.1z M5.5,516.1h9v-9.002h-9V516.1z"/>
	</g>
	<g>
		<rect x="982.5" y="504.098" fill="#FFFFFF" width="15" height="15.002"/>
		<path fill="#494849" d="M1000.5,522.1h-21v-21.002h21V522.1z M985.5,516.1h9v-9.002h-9V516.1z"/>
	</g>
</g>
</svg>
