<?xml version="1.0" encoding="utf-8"?>
<!-- Generator: Adobe Illustrator 16.0.0, SVG Export Plug-In . SVG Version: 6.00 Build 0)  -->
<!DOCTYPE svg PUBLIC "-//W3C//DTD SVG 1.1//EN" "http://www.w3.org/Graphics/SVG/1.1/DTD/svg11.dtd">
<svg version="1.1" id="Layer_1" xmlns="http://www.w3.org/2000/svg" xmlns:xlink="http://www.w3.org/1999/xlink" x="0px" y="0px"
	 width="1000px" height="300px" viewBox="0 0 1000 300" enable-background="new 0 0 1000 300" xml:space="preserve">
<text transform="matrix(1 0 0 1 65.4541 -586.771)" fill="#494849" font-family="'SourceSansPro-Regular'" font-size="205.8514">Seon Choi</text>
<text transform="matrix(1 0 0 1 50.8389 -184.771)" fill="#494849" stroke="#494849" stroke-width="3" stroke-miterlimit="10" font-family="'SourceSansPro-Light'" font-size="205.8514">Seon Choil</text>
<text transform="matrix(1 0 0 1 215.7227 -878.771)" fill="#494849" font-family="'SourceSansPro-Light'" font-size="205.8514">Clients</text>
<g>
	<rect x="10" y="-370.293" fill="none" stroke="#494849" stroke-width="6" stroke-miterlimit="10" width="980" height="240"/>
	<rect x="491.5" y="-377.793" fill="#FFFFFF" stroke="#494849" stroke-width="6" stroke-miterlimit="10" width="15" height="15"/>
	
		<rect x="491.5" y="-137.794" fill="#FFFFFF" stroke="#494849" stroke-width="6" stroke-miterlimit="10" width="15" height="15.002"/>
	<rect x="982.5" y="-377.793" fill="#FFFFFF" stroke="#494849" stroke-width="6" stroke-miterlimit="10" width="15" height="15"/>
	
		<rect x="982.5" y="-137.794" fill="#FFFFFF" stroke="#494849" stroke-width="6" stroke-miterlimit="10" width="15" height="15.002"/>
	<rect x="2.5" y="-377.793" fill="#FFFFFF" stroke="#494849" stroke-width="6" stroke-miterlimit="10" width="15" height="15"/>
	<rect x="2.5" y="-137.794" fill="#FFFFFF" stroke="#494849" stroke-width="6" stroke-miterlimit="10" width="15" height="15.002"/>
	<rect x="2.5" y="-257.794" fill="#FFFFFF" stroke="#494849" stroke-width="6" stroke-miterlimit="10" width="15" height="15.002"/>
	
		<rect x="982.5" y="-257.794" fill="#FFFFFF" stroke="#494849" stroke-width="6" stroke-miterlimit="10" width="15" height="15.002"/>
</g>
<g>
	<path fill="#F1F0F0" d="M181.949,789.014l-18.487-8.137l-0.419-0.201c-8.856-4.059-19.882-9.104-19.882-22.068
		c0-12.445,10.067-20.486,25.665-20.486c10.878,0,20.325,4.029,28.093,11.988l1.01,1.049l6.561-7.57l-0.797-0.893
		c-8.899-9.564-21.613-15.049-34.866-15.049c-21.369,0-36.863,13.174-36.863,31.33c0,17.934,12.941,26.025,25.593,31.564
		l18.491,8.338c13.086,5.842,21.053,10.381,21.053,24.295c0,14.025-11.398,23.076-29.013,23.076c-13,0-25.658-5.834-34.687-16.012
		l-0.991-1.102L125,837.029l0.828,0.928c7.661,8.568,21.236,18.771,42.259,18.771c23.797,0,40.394-14.027,40.394-34.102
		C208.48,802.523,194.805,794.732,181.949,789.014z"/>
	<path fill="#F1F0F0" d="M263.024,760.773c-19.413,0-40.038,16.879-40.038,48.156c0,28.137,17.439,47.799,42.427,47.799
		c12.896,0,20.906-4.213,28.638-8.896l1.104-0.658l-4.662-8.783l-1.249,0.898c-7.271,5.26-14.604,7.703-23.09,7.703
		c-18.475,0-31.231-14.324-32.104-35.787h63.781l0.194-1.129c0.373-2.336,0.373-4.641,0.373-6.879
		C298.398,776.623,285.169,760.773,263.024,760.773z M287.941,801.85H234.16c2.146-18.541,13.929-31.354,29.029-31.354
		C278.806,770.496,287.555,781.619,287.941,801.85z"/>
	<path fill="#F1F0F0" d="M353.49,760.773c-11.16,0-21.41,4.492-28.878,12.668c-8.026,8.789-12.257,21.066-12.257,35.488
		c0,14.266,4.232,26.432,12.259,35.166c7.483,8.146,17.733,12.633,28.876,12.633c11.225,0,21.533-4.486,29.012-12.631
		c8.038-8.727,12.315-20.891,12.315-35.168C394.817,780.58,377.82,760.773,353.49,760.773z M353.49,846.813
		c-17.619,0-29.919-15.584-29.919-37.883c0-22.514,12.3-38.242,29.919-38.242c17.438,0,30.109,16.084,30.109,38.242
		C383.6,830.877,370.928,846.813,353.49,846.813z"/>
	<path fill="#F1F0F0" d="M458.958,760.773c-12.504,0-21.779,6.883-29.873,14.711l-0.671-12.492h-9.665v91.516h10.835v-67.781
		c10.395-10.516,17.59-15.861,27.695-15.861c13.327,0,19.006,7.9,19.006,26.41v57.232h10.862v-58.344
		C487.147,772.348,477.916,760.773,458.958,760.773z"/>
	<path fill="#F1F0F0" d="M630.023,831.711c-9.099,10.053-18.313,14.539-29.897,14.539c-25.415,0-41.194-20.82-41.194-54.338
		c0-33.188,16.075-53.791,41.938-53.791c9.956,0,18.574,4.068,25.626,12.113l1.027,1.158l6.782-7.775l-0.756-0.877
		c-3.882-4.545-14.833-15.094-32.864-15.094c-15.691,0-29.052,6.035-38.622,17.434c-9.637,11.486-14.727,27.684-14.727,46.832
		c0,38.764,21.084,64.816,52.434,64.816c14.725,0,26.58-5.68,37.274-17.863l0.809-0.908l-6.835-7.332L630.023,831.711z"/>
	<path fill="#F1F0F0" d="M698.765,760.773c-12.172,0-21.355,6.586-29.371,14.24v-56.252h-10.836v135.746h10.836v-67.781
		c10.384-10.516,17.59-15.861,27.695-15.861c13.327,0,19.006,7.9,19.006,26.41v57.232h10.835v-58.344
		C726.93,772.348,717.72,760.773,698.765,760.773z"/>
	<path fill="#F1F0F0" d="M789.976,760.773c-11.165,0-21.417,4.492-28.858,12.668c-8.045,8.789-12.283,21.066-12.283,35.488
		c0,14.266,4.24,26.432,12.285,35.166c7.456,8.146,17.707,12.633,28.856,12.633c11.224,0,21.533-4.486,29.013-12.631
		c8.057-8.727,12.313-20.891,12.313-35.168C831.302,780.58,814.306,760.773,789.976,760.773z M789.976,846.813
		c-17.627,0-29.926-15.584-29.926-37.883c0-22.514,12.299-38.242,29.926-38.242c17.437,0,30.106,16.084,30.106,38.242
		C820.082,830.877,807.412,846.813,789.976,846.813z"/>
	<path fill="#F1F0F0" d="M860.828,726.904c-5.065,0-8.751,3.68-8.751,8.75c0,4.887,3.765,8.568,8.751,8.568
		c4.994,0,8.75-3.682,8.75-8.568C869.578,730.584,865.898,726.904,860.828,726.904z"/>
	<path fill="#F1F0F0" d="M872.975,846.201l-1.297,0.27c-1.723,0.342-2.371,0.342-3.061,0.342c-2.296,0-2.551-3.07-2.551-4.389
		v-79.432h-10.833v78.324c0,10.223,4.118,15.412,12.259,15.412c2.959,0,4.814-0.482,6.364-1.006l1.144-0.385L872.975,846.201z"/>
</g>
<g>
	<path fill="#F1F0F0" d="M989.555,915.883H10.445V671.605h979.109V915.883z M16.404,909.924h967.191V677.561H16.404V909.924z"/>
	<g>
		<rect x="491.562" y="667.137" fill="#494849" width="14.891" height="14.894"/>
		<path fill="#F1F0F0" d="M509.432,685.01h-20.85v-20.854h20.85V685.01z M494.541,679.051h8.932v-8.936h-8.932V679.051z"/>
	</g>
	<g>
		<rect x="491.562" y="905.457" fill="#494849" width="14.891" height="14.9"/>
		<path fill="#F1F0F0" d="M509.432,923.33h-20.85v-20.852h20.85V923.33z M494.541,917.377h8.932v-8.939h-8.932V917.377z"/>
	</g>
	<g>
		<rect x="979.123" y="667.137" fill="#494849" width="14.897" height="14.894"/>
		<path fill="#F1F0F0" d="M997,685.01h-20.852v-20.854H997V685.01z M982.103,679.051h8.938v-8.936h-8.938V679.051z"/>
	</g>
	<g>
		<rect x="979.123" y="905.457" fill="#494849" width="14.897" height="14.9"/>
		<path fill="#F1F0F0" d="M997,923.33h-20.852v-20.852H997V923.33z M982.103,917.377h8.938v-8.939h-8.938V917.377z"/>
	</g>
	<g>
		<rect x="5.979" y="667.137" fill="#494849" width="14.897" height="14.894"/>
		<path fill="#F1F0F0" d="M23.855,685.01H3v-20.854h20.855V685.01z M8.959,679.051h8.938v-8.936H8.959V679.051z"/>
	</g>
	<g>
		<rect x="5.979" y="905.457" fill="#494849" width="14.897" height="14.9"/>
		<path fill="#F1F0F0" d="M23.855,923.33H3v-20.852h20.855V923.33z M8.959,917.377h8.938v-8.939H8.959V917.377z"/>
	</g>
	<g>
		<rect x="5.979" y="786.295" fill="#494849" width="14.897" height="14.899"/>
		<path fill="#F1F0F0" d="M23.855,804.172H3v-20.855h20.855V804.172z M8.959,798.215h8.938v-8.94H8.959V798.215z"/>
	</g>
	<g>
		<rect x="979.123" y="786.295" fill="#494849" width="14.897" height="14.899"/>
		<path fill="#F1F0F0" d="M997,804.172h-20.852v-20.855H997V804.172z M982.103,798.215h8.938v-8.94h-8.938V798.215z"/>
	</g>
</g>
<g>
	<path fill="#494849" d="M181.951,144.073l-18.489-8.138l-0.417-0.201c-8.859-4.058-19.887-9.103-19.887-22.069
		c0-12.445,10.069-20.485,25.67-20.485c10.874,0,20.321,4.028,28.094,11.987l1.01,1.047l6.561-7.568l-0.798-0.892
		c-8.903-9.565-21.613-15.049-34.866-15.049c-21.372,0-36.868,13.173-36.868,31.332c0,17.933,12.943,26.024,25.598,31.563
		l18.487,8.339c13.086,5.838,21.057,10.38,21.057,24.295c0,14.021-11.396,23.076-29.014,23.076c-13,0-25.656-5.837-34.688-16.013
		l-0.99-1.104l-7.41,7.896l0.829,0.927c7.66,8.566,21.237,18.771,42.259,18.771c23.795,0,40.394-14.026,40.394-34.102
		C208.481,157.583,194.803,149.792,181.951,144.073z"/>
	<path fill="#494849" d="M263.025,115.832c-19.416,0-40.041,16.88-40.041,48.155c0,28.136,17.442,47.799,42.426,47.799
		c12.896,0,20.911-4.213,28.642-8.896l1.103-0.656l-4.663-8.786l-1.246,0.901c-7.273,5.259-14.608,7.702-23.094,7.702
		c-18.47,0-31.229-14.323-32.101-35.787h63.78l0.194-1.128c0.375-2.336,0.375-4.641,0.375-6.88
		C298.4,131.682,285.166,115.832,263.025,115.832z M287.938,156.907h-53.779c2.144-18.539,13.93-31.354,29.03-31.354
		C278.808,125.553,287.555,136.678,287.938,156.907z"/>
	<path fill="#494849" d="M353.489,115.832c-11.16,0-21.411,4.491-28.879,12.669c-8.022,8.787-12.258,21.065-12.258,35.486
		c0,14.268,4.236,26.431,12.26,35.167c7.482,8.145,17.733,12.632,28.877,12.632c11.226,0,21.533-4.486,29.013-12.631
		c8.041-8.725,12.314-20.889,12.314-35.167C394.816,135.638,377.82,115.832,353.489,115.832z M353.489,201.873
		c-17.622,0-29.92-15.584-29.92-37.885c0-22.514,12.298-38.242,29.92-38.242c17.439,0,30.109,16.085,30.109,38.242
		C383.599,185.935,370.929,201.873,353.489,201.873z"/>
	<path fill="#494849" d="M458.955,115.832c-12.501,0-21.777,6.881-29.867,14.71l-0.673-12.489h-9.663v91.511h10.831v-67.779
		c10.395-10.516,17.591-15.862,27.699-15.862c13.326,0,19.005,7.901,19.005,26.409v57.232h10.858v-58.344
		C487.146,127.404,477.912,115.832,458.955,115.832z"/>
	<path fill="#494849" d="M630.022,186.77c-9.097,10.052-18.312,14.541-29.897,14.541c-25.41,0-41.191-20.824-41.191-54.339
		c0-33.188,16.073-53.791,41.934-53.791c9.959,0,18.575,4.066,25.631,12.111l1.025,1.161l6.781-7.777l-0.756-0.878
		c-3.881-4.542-14.834-15.092-32.865-15.092c-15.693,0-29.053,6.035-38.621,17.434c-9.636,11.488-14.729,27.683-14.729,46.833
		c0,38.765,21.087,64.815,52.435,64.815c14.726,0,26.578-5.679,37.275-17.861l0.81-0.91l-6.839-7.334L630.022,186.77z"/>
	<path fill="#494849" d="M698.765,115.832c-12.176,0-21.354,6.585-29.373,14.238V73.819H658.56v135.746h10.832v-67.779
		c10.384-10.516,17.593-15.862,27.699-15.862c13.327,0,19.005,7.901,19.005,26.409v57.232h10.831v-58.344
		C726.927,127.404,717.723,115.832,698.765,115.832z"/>
	<path fill="#494849" d="M789.971,115.832c-11.158,0-21.409,4.491-28.854,12.669c-8.047,8.787-12.281,21.065-12.281,35.486
		c0,14.268,4.236,26.431,12.283,35.167c7.458,8.145,17.709,12.632,28.852,12.632c11.226,0,21.535-4.486,29.014-12.631
		c8.061-8.725,12.314-20.889,12.314-35.167C831.299,135.638,814.303,115.832,789.971,115.832z M789.971,201.873
		c-17.62,0-29.919-15.584-29.919-37.885c0-22.514,12.299-38.242,29.919-38.242c17.441,0,30.11,16.085,30.11,38.242
		C820.081,185.935,807.412,201.873,789.971,201.873z"/>
	<path fill="#494849" d="M860.829,81.964c-5.069,0-8.749,3.681-8.749,8.748c0,4.889,3.765,8.57,8.749,8.57
		c4.992,0,8.748-3.682,8.748-8.57C869.577,85.645,865.897,81.964,860.829,81.964z"/>
	<path fill="#494849" d="M872.976,201.26l-1.302,0.269c-1.716,0.344-2.365,0.344-3.058,0.344c-2.293,0-2.55-3.074-2.55-4.388
		v-79.431h-10.833v78.32c0,10.225,4.116,15.413,12.259,15.413c2.958,0,4.813-0.482,6.366-1.004l1.142-0.385L872.976,201.26z"/>
</g>
<g>
	<path fill="#494849" d="M989.553,272.14H10.447V27.859h979.105V272.14z M16.405,266.182h967.189V33.817H16.405V266.182z"/>
	<g>
		<rect x="491.56" y="23.391" fill="#FFFFFF" width="14.895" height="14.895"/>
		<path fill="#494849" d="M509.434,41.265H488.58V20.412h20.854V41.265z M494.538,35.307h8.938V26.37h-8.938V35.307z"/>
	</g>
	<g>
		<rect x="491.56" y="261.712" fill="#FFFFFF" width="14.895" height="14.897"/>
		<path fill="#494849" d="M509.434,279.588H488.58v-20.854h20.854V279.588z M494.538,273.63h8.938v-8.938h-8.938V273.63z"/>
	</g>
	<g>
		<rect x="979.126" y="23.391" fill="#FFFFFF" width="14.896" height="14.895"/>
		<path fill="#494849" d="M997,41.265h-20.854V20.412H997V41.265z M982.104,35.307h8.938V26.37h-8.938V35.307z"/>
	</g>
	<g>
		<rect x="979.126" y="261.712" fill="#FFFFFF" width="14.896" height="14.897"/>
		<path fill="#494849" d="M997,279.588h-20.854v-20.854H997V279.588z M982.104,273.63h8.938v-8.938h-8.938V273.63z"/>
	</g>
	<g>
		<rect x="5.979" y="23.391" fill="#FFFFFF" width="14.895" height="14.895"/>
		<path fill="#494849" d="M23.854,41.265H3V20.412h20.854V41.265z M8.958,35.307h8.938V26.37H8.958V35.307z"/>
	</g>
	<g>
		<rect x="5.979" y="261.712" fill="#FFFFFF" width="14.895" height="14.897"/>
		<path fill="#494849" d="M23.854,279.588H3v-20.854h20.854V279.588z M8.958,273.63h8.938v-8.938H8.958V273.63z"/>
	</g>
	<g>
		<rect x="5.979" y="142.551" fill="#FFFFFF" width="14.895" height="14.897"/>
		<path fill="#494849" d="M23.854,160.428H3v-20.855h20.854V160.428z M8.958,154.47h8.938v-8.939H8.958V154.47z"/>
	</g>
	<g>
		<rect x="979.126" y="142.551" fill="#FFFFFF" width="14.896" height="14.897"/>
		<path fill="#494849" d="M997,160.428h-20.854v-20.855H997V160.428z M982.104,154.47h8.938v-8.939h-8.938V154.47z"/>
	</g>
</g>
</svg>
