<?xml version="1.0" encoding="utf-8"?>
<!-- Generator: Adobe Illustrator 16.0.0, SVG Export Plug-In . SVG Version: 6.00 Build 0)  -->
<!DOCTYPE svg PUBLIC "-//W3C//DTD SVG 1.1//EN" "http://www.w3.org/Graphics/SVG/1.1/DTD/svg11.dtd">
<svg version="1.1" id="Layer_1" xmlns="http://www.w3.org/2000/svg" xmlns:xlink="http://www.w3.org/1999/xlink" x="0px" y="0px"
	 width="42px" height="144px" viewBox="0 0 42 144" enable-background="new 0 0 42 144" xml:space="preserve">
<rect fill="none" width="42" height="144"/>
<g>
	<path fill="#FF1919" d="M36.437,0.001v104.733v11.192c0,8.51-6.925,15.437-15.438,15.437c-8.504,0-15.43-6.923-15.435-15.434
		v-0.002v-11.192V30.841c0-1.009-0.811-1.821-1.818-1.821c-1.004,0-1.82,0.812-1.82,1.821v85.084
		c0,10.52,8.557,19.075,19.073,19.075c10.521,0,19.077-8.556,19.077-19.075V0.001H36.437z"/>
	<path fill="#FF1919" d="M30.971,29.003c-1.009,0-1.821,0.819-1.821,1.82V81.66v8.509c0,2.989-1.624,5.6-4.03,7.018
		c-1.175,0.648-2.701,1.135-4.122,1.135c-1.417,0-2.943-0.486-4.118-1.135c-2.401-1.416-4.03-4.025-4.03-7.018v-8.511V0.002H9.211
		v90.167v0.002v0.004c0,3.276,1.346,6.232,3.515,8.371c-0.004,0-0.004,0-0.009,0.002c0.015,0.015,0.036,0.03,0.053,0.042
		c0.024,0.03,0.049,0.059,0.08,0.087c0.004,0,0.008-0.002,0.01-0.004c1.067,0.988,2.417,1.905,3.776,2.451
		c1.354,0.539,2.823,0.835,4.362,0.835c1.543,0,3.013-0.296,4.366-0.835c1.359-0.545,2.709-1.466,3.776-2.453
		c0.001,0.002,0.005,0.002,0.01,0.007c0.026-0.026,0.043-0.053,0.066-0.079c0.021-0.018,0.047-0.036,0.066-0.055
		c-0.004-0.002-0.009-0.002-0.009-0.004c1.588-1.571,2.743-3.575,3.238-5.83c0.184-0.82,0.281-1.671,0.281-2.541V30.823
		C32.793,29.822,31.976,29.003,30.971,29.003z"/>
</g>
</svg>
