<?xml version="1.0" encoding="utf-8"?>
<!-- Generator: Adobe Illustrator 16.0.0, SVG Export Plug-In . SVG Version: 6.00 Build 0)  -->
<!DOCTYPE svg PUBLIC "-//W3C//DTD SVG 1.1//EN" "http://www.w3.org/Graphics/SVG/1.1/DTD/svg11.dtd">
<svg version="1.1" id="Layer_1" xmlns="http://www.w3.org/2000/svg" xmlns:xlink="http://www.w3.org/1999/xlink" x="0px" y="0px"
	 width="1000px" height="300px" viewBox="0 0 1000 300" enable-background="new 0 0 1000 300" xml:space="preserve">
<g>
	<path fill="#EE2524" d="M38.189-144.286H10.059L68.557-304.63h28.249L38.189-144.286z"/>
	<path fill="#313131" d="M208.65-196.111c0-5.206-1.724-9.229-5.172-12.069c-3.448-2.84-9.635-5.848-18.56-9.026
		c-18.662-5.882-32.489-12.187-41.481-18.915c-8.993-6.727-13.488-16.446-13.488-29.158c0-12.373,5.357-22.379,16.075-30.02
		c10.715-7.64,24.323-11.46,40.821-11.46c16.361,0,29.767,4.208,40.213,12.626s15.5,19.254,15.162,32.505l-0.203,0.608h-33.266
		c0-5.882-1.995-10.665-5.983-14.351c-3.99-3.684-9.5-5.527-16.531-5.527c-6.896,0-12.307,1.521-16.228,4.564
		c-3.922,3.042-5.882,6.795-5.882,11.257c0,4.328,1.978,7.794,5.933,10.396c3.955,2.604,11.375,5.866,22.262,9.787
		c16.768,5.004,29.395,11.156,37.88,18.458c8.484,7.302,12.729,17.343,12.729,30.122c0,12.982-5.055,23.141-15.162,30.477
		c-10.108,7.337-23.514,11.004-40.213,11.004c-16.77,0-31.272-4.209-43.51-12.627c-12.238-8.418-18.188-20.538-17.85-36.359
		l0.203-0.608h33.367c0,8.519,2.298,14.604,6.896,18.255c4.597,3.651,11.562,5.477,20.893,5.477c7.1,0,12.389-1.42,15.872-4.259
		C206.909-187.794,208.65-191.512,208.65-196.111z"/>
	<path fill="#313131" d="M309.665-154.833c-16.161,0-29.057-5.071-38.691-15.213c-9.636-10.142-14.453-22.853-14.453-38.134v-3.854
		c0-16.7,4.377-30.34,13.134-40.923c8.756-10.581,21.281-15.837,37.576-15.771c14.874,0,26.537,4.462,34.99,13.387
		c8.451,8.925,12.678,21.029,12.678,36.309v17.951h-62.678l-0.203,0.608c0.743,5.613,3.043,10.228,6.896,13.844
		c3.854,3.618,8.992,5.426,15.416,5.426c6.491,0,11.68-0.507,15.568-1.521c3.887-1.014,8.806-2.771,14.756-5.274l8.114,20.893
		c-4.802,3.517-11.004,6.44-18.61,8.773C326.551-156,318.387-154.833,309.665-154.833z M307.23-242.358
		c-4.936,0-8.638,1.759-11.105,5.274c-2.469,3.516-3.973,8.215-4.513,14.097l0.304,0.507h29.514v-2.637
		c0-5.543-1.15-9.803-3.448-12.779C315.682-240.871,312.099-242.358,307.23-242.358z"/>
	<path fill="#313131" d="M364.838-212.845c0-16.497,4.665-29.935,13.995-40.314c9.331-10.378,22.346-15.568,39.047-15.568
		c16.768,0,29.817,5.19,39.148,15.568c9.33,10.38,13.996,23.818,13.996,40.314v2.13c0,16.566-4.666,30.02-13.996,40.365
		c-9.331,10.345-22.313,15.517-38.945,15.517c-16.836,0-29.919-5.172-39.25-15.517c-9.33-10.345-13.995-23.799-13.995-40.365
		V-212.845z M399.117-210.715c0,9.196,1.436,16.414,4.311,21.653c2.873,5.241,7.759,7.86,14.655,7.86
		c6.693,0,11.493-2.637,14.401-7.911c2.906-5.274,4.361-12.475,4.361-21.603v-2.13c0-8.925-1.455-16.075-4.361-21.45
		c-2.908-5.375-7.776-8.063-14.604-8.063c-6.762,0-11.579,2.705-14.452,8.114c-2.875,5.41-4.311,12.542-4.311,21.399V-210.715z"/>
	<path fill="#313131" d="M517.678-266.699l1.318,15.416c3.583-5.477,8.012-9.752,13.286-12.83
		c5.273-3.076,11.155-4.615,17.646-4.615c10.751,0,19.151,3.483,25.203,10.446c6.05,6.965,9.077,18.053,9.077,33.266v68.053h-34.28
		v-68.154c0-6.288-1.303-10.733-3.904-13.336c-2.604-2.602-6.44-3.905-11.512-3.905c-3.179,0-6.001,0.575-8.469,1.724
		c-2.469,1.15-4.581,2.738-6.338,4.767v78.905h-34.179v-109.736H517.678z"/>
	<path fill="#313131" d="M771.43-208.789l0.202,0.609c-0.677,17.309-5.798,30.527-15.364,39.655
		c-9.568,9.128-23.446,13.692-41.634,13.692c-18.255,0-33.098-5.611-44.522-16.836c-11.428-11.223-17.141-25.794-17.141-43.712
		v-30.832c0-17.85,5.493-32.404,16.481-43.661c10.986-11.258,25.269-16.886,42.85-16.886c18.661,0,32.927,4.7,42.799,14.097
		c9.871,9.399,15.449,22.753,16.734,40.061l-0.203,0.608h-33.367c-0.474-9.6-2.621-16.734-6.439-21.4
		c-3.821-4.665-10.329-6.998-19.523-6.998c-7.776,0-13.895,3.128-18.357,9.381c-4.462,6.254-6.693,14.452-6.693,24.594v31.034
		c0,10.21,2.434,18.458,7.302,24.747s11.563,9.432,20.081,9.432c8.249,0,14.098-2.196,17.546-6.592
		c3.448-4.395,5.409-11.393,5.883-20.994H771.43z"/>
	<path fill="#313131" d="M821.328-253.109c3.313-4.935,7.353-8.773,12.12-11.511c4.767-2.738,10.022-4.107,15.771-4.107
		c11.359,0,20.284,3.956,26.774,11.866c6.491,7.911,9.736,20.183,9.736,36.815v63.083H851.45v-63.286
		c0-8.383-1.269-14.164-3.804-17.343c-2.535-3.177-6.407-4.767-11.612-4.767c-3.313,0-6.187,0.491-8.621,1.471
		c-2.434,0.981-4.462,2.35-6.085,4.107v79.817h-34.28v-158.215h34.28V-253.109z"/>
	<path fill="#313131" d="M900.233-212.845c0-16.497,4.665-29.935,13.995-40.314c9.331-10.378,22.346-15.568,39.047-15.568
		c16.768,0,29.817,5.19,39.148,15.568c9.33,10.38,13.996,23.818,13.996,40.314v2.13c0,16.566-4.666,30.02-13.996,40.365
		c-9.331,10.345-22.313,15.517-38.945,15.517c-16.836,0-29.919-5.172-39.25-15.517c-9.33-10.345-13.995-23.799-13.995-40.365
		V-212.845z M934.513-210.715c0,9.196,1.436,16.414,4.311,21.653c2.873,5.241,7.759,7.86,14.655,7.86
		c6.693,0,11.493-2.637,14.401-7.911c2.906-5.274,4.361-12.475,4.361-21.603v-2.13c0-8.925-1.455-16.075-4.361-21.45
		c-2.908-5.375-7.776-8.063-14.604-8.063c-6.762,0-11.579,2.705-14.452,8.114c-2.875,5.41-4.311,12.542-4.311,21.399V-210.715z"/>
	<path fill="#313131" d="M1057.434-292.155h-34.381v-23.022h34.381V-292.155z M1057.434-156.963h-34.381v-109.736h34.381V-156.963z"
		/>
</g>
<g>
	<path fill="#313131" d="M161.75-81.455c-1.05,1.521-2.961,2.94-5.734,4.257c-2.774,1.318-6.271,1.976-10.49,1.976
		c-5.44,0-9.9-1.852-13.381-5.557c-3.481-3.706-5.221-8.503-5.221-14.394v-8.578c0-5.783,1.655-10.495,4.964-14.136
		c3.309-3.642,7.598-5.462,12.867-5.462c5.032,0,8.968,1.258,11.807,3.775c2.837,2.517,4.481,5.789,4.932,9.814l-0.064,0.193h-3.566
		c-0.557-3.127-1.874-5.659-3.952-7.598c-2.077-1.938-5.129-2.908-9.155-2.908c-4.198,0-7.577,1.519-10.137,4.559
		c-2.56,3.039-3.84,6.935-3.84,11.686v8.636c0,4.879,1.361,8.881,4.081,12.006c2.72,3.124,6.275,4.687,10.666,4.687
		c3.105,0,5.746-0.433,7.92-1.298s3.656-1.813,4.449-2.838V-94.82h-12.434v-3.277h16.289V-81.455z"/>
	<path fill="#313131" d="M189.965-107.35l-2.859-0.192c-2.421,0-4.406,0.68-5.96,2.04c-1.553,1.36-2.661,3.229-3.325,5.606v24
		h-3.854v-34.762h3.373l0.481,5.783v0.385c1.007-2.141,2.355-3.812,4.049-5.011c1.691-1.199,3.705-1.8,6.039-1.8
		c0.493,0,0.969,0.038,1.431,0.113c0.46,0.076,0.84,0.155,1.14,0.241L189.965-107.35z"/>
	<path fill="#313131" d="M220.011-75.897c-0.258-1.178-0.439-2.195-0.547-3.052c-0.107-0.856-0.161-1.724-0.161-2.602
		c-1.284,1.821-2.999,3.331-5.14,4.53c-2.143,1.199-4.552,1.798-7.229,1.798c-3.385,0-6.014-0.898-7.888-2.698
		c-1.875-1.799-2.812-4.209-2.812-7.229c0-3.212,1.387-5.783,4.161-7.71c2.773-1.928,6.517-2.892,11.229-2.892h7.678v-4.305
		c0-2.485-0.798-4.434-2.394-5.847c-1.596-1.414-3.828-2.12-6.698-2.12c-2.677,0-4.899,0.674-6.666,2.024
		c-1.768,1.349-2.651,2.999-2.651,4.947l-3.534-0.032l-0.063-0.192c-0.129-2.591,1.055-4.91,3.551-6.956
		c2.494-2.045,5.67-3.069,9.524-3.069c3.834,0,6.918,0.976,9.254,2.924c2.334,1.949,3.502,4.744,3.502,8.385V-82.9
		c0,1.221,0.068,2.409,0.209,3.565c0.139,1.157,0.369,2.303,0.689,3.438H220.011z M207.385-78.627c2.762,0,5.204-0.648,7.324-1.943
		c2.121-1.296,3.651-2.951,4.594-4.964v-7.261h-7.742c-3.491,0-6.281,0.745-8.369,2.233c-2.089,1.489-3.132,3.336-3.132,5.542
		c0,1.884,0.646,3.421,1.943,4.61C203.298-79.222,205.092-78.627,207.385-78.627z"/>
	<path fill="#313131" d="M263.004-92.313c0,5.205-1.178,9.354-3.534,12.449c-2.355,3.095-5.602,4.642-9.734,4.642
		c-2.442,0-4.578-0.46-6.409-1.381c-1.831-0.921-3.326-2.238-4.482-3.952v18.024h-3.854v-48.127h3.244l0.482,5.397
		c1.156-1.928,2.649-3.416,4.481-4.466c1.831-1.048,3.989-1.574,6.474-1.574c4.177,0,7.443,1.666,9.799,4.996
		c2.356,3.332,3.534,7.771,3.534,13.317V-92.313z M259.148-93.037c0-4.417-0.878-8.019-2.634-10.807
		c-1.757-2.787-4.327-4.18-7.711-4.18c-2.592,0-4.696,0.616-6.313,1.849c-1.617,1.232-2.833,2.835-3.646,4.808v16.725
		c0.878,1.908,2.146,3.409,3.808,4.502c1.659,1.093,3.731,1.641,6.216,1.641c3.362,0,5.917-1.266,7.663-3.795
		c1.745-2.53,2.618-5.886,2.618-10.067V-93.037z"/>
	<path fill="#313131" d="M277.146-104.715c1.156-2.078,2.699-3.694,4.627-4.851c1.928-1.156,4.177-1.735,6.747-1.735
		c3.662,0,6.474,1.136,8.433,3.406c1.96,2.27,2.939,5.794,2.939,10.57v21.429h-3.854v-21.536c0-3.777-0.745-6.486-2.233-8.128
		c-1.489-1.642-3.539-2.462-6.152-2.462c-2.635,0-4.836,0.692-6.603,2.077s-3.067,3.224-3.903,5.521v24.53h-3.854v-50.119h3.854
		V-104.715z"/>
	<path fill="#313131" d="M315.867-120.619h-3.822v-5.397h3.822V-120.619z M315.867-75.897h-3.822v-34.762h3.822V-75.897z"/>
	<path fill="#313131" d="M341.029-78.499c2.549,0,4.797-0.725,6.746-2.176c1.95-1.451,2.925-3.467,2.925-6.049h3.404l0.064,0.193
		c0.107,3.212-1.178,5.9-3.854,8.063c-2.678,2.164-5.772,3.245-9.285,3.245c-4.733,0-8.391-1.622-10.972-4.867
		c-2.581-3.245-3.871-7.416-3.871-12.514v-1.349c0-5.055,1.295-9.21,3.887-12.466s6.233-4.884,10.924-4.884
		c3.813,0,6.987,1.125,9.526,3.374c2.538,2.249,3.764,5.205,3.678,8.867l-0.064,0.192H350.7c0-2.784-0.938-5.006-2.812-6.667
		c-1.875-1.66-4.172-2.489-6.892-2.489c-3.727,0-6.484,1.332-8.272,3.996c-1.789,2.664-2.684,6.017-2.684,10.061v1.348
		c0,4.107,0.89,7.488,2.667,10.141C334.486-79.826,337.26-78.499,341.029-78.499z"/>
	<path fill="#313131" d="M388.913-101.438c-1.735-2.142-3.021-4.096-3.855-5.863c-0.835-1.768-1.253-3.583-1.253-5.446
		c0-3.384,0.953-5.998,2.86-7.839c1.905-1.841,4.519-2.763,7.838-2.763c3.084,0,5.531,0.867,7.342,2.603
		c1.81,1.734,2.715,3.919,2.715,6.554c0,1.928-0.482,3.588-1.446,4.979c-0.964,1.393-2.356,2.785-4.177,4.176l-5.108,3.92
		l13.236,15.453c1.05-1.52,1.864-3.223,2.442-5.107c0.578-1.885,0.868-3.899,0.868-6.041h3.534c0,2.742-0.392,5.264-1.173,7.566
		c-0.783,2.303-1.912,4.386-3.39,6.249l5.943,6.94l-0.064,0.16h-4.401l-3.92-4.53c-1.821,1.671-3.813,2.956-5.976,3.856
		c-2.164,0.899-4.498,1.349-7.004,1.349c-4.478,0-8.021-1.146-10.634-3.437c-2.613-2.292-3.92-5.344-3.92-9.157
		c0-2.57,0.776-4.888,2.33-6.956c1.552-2.066,3.795-4.17,6.73-6.313L388.913-101.438z M393.925-78.499
		c1.971,0,3.893-0.383,5.768-1.148c1.873-0.766,3.561-1.861,5.06-3.285l-13.301-15.486c-0.107-0.107-0.198-0.198-0.272-0.273
		c-0.076-0.075-0.135-0.155-0.177-0.241l-1.511,1.154c-2.484,2.01-4.15,3.829-4.995,5.454c-0.847,1.625-1.27,3.122-1.27,4.49
		c0,2.652,0.915,4.872,2.747,6.657C387.805-79.391,390.455-78.499,393.925-78.499z M387.66-112.811c0,1.413,0.338,2.88,1.012,4.401
		c0.675,1.521,1.708,3.138,3.101,4.851l5.687-4.241c1.242-0.964,2.125-1.97,2.65-3.02c0.525-1.048,0.787-2.173,0.787-3.373
		c0-1.692-0.563-3.095-1.687-4.208c-1.124-1.114-2.693-1.671-4.707-1.671c-2.185,0-3.87,0.696-5.06,2.089
		C388.254-116.591,387.66-114.867,387.66-112.811z"/>
	<path fill="#313131" d="M467.478-88.941h-21.429l-4.819,13.044h-3.984l17.767-46.778h3.631l17.638,46.778h-3.983L467.478-88.941z
		 M447.333-92.378h18.892l-9.316-25.317h-0.193L447.333-92.378z"/>
	<path fill="#313131" d="M482.52-92.989c0-5.546,1.173-9.985,3.518-13.317c2.346-3.33,5.617-4.996,9.815-4.996
		c2.42,0,4.52,0.514,6.297,1.542c1.778,1.028,3.255,2.485,4.434,4.37v-20.626h3.823v50.119h-3.405l-0.321-5.044
		c-1.156,1.843-2.646,3.256-4.467,4.241c-1.819,0.985-3.963,1.478-6.425,1.478c-4.155,0-7.405-1.547-9.751-4.642
		c-2.345-3.095-3.518-7.244-3.518-12.449V-92.989z M486.375-92.31c0,4.216,0.84,7.572,2.521,10.067
		c1.682,2.495,4.215,3.743,7.598,3.743c2.485,0,4.558-0.559,6.218-1.677c1.659-1.119,2.95-2.668,3.871-4.647v-16.393
		c-0.878-2.022-2.12-3.662-3.727-4.92c-1.606-1.26-3.706-1.888-6.297-1.888c-3.385,0-5.928,1.393-7.63,4.178
		c-1.704,2.786-2.555,6.405-2.555,10.857V-92.31z"/>
	<path fill="#313131" d="M532.196-84.604l1.124,4.081h0.192l1.221-4.081l9.445-26.055h3.984l-13.204,34.762h-3.085l-13.236-34.762
		h3.983L532.196-84.604z"/>
	<path fill="#313131" d="M568.763-75.223c-4.349,0-7.962-1.606-10.844-4.819c-2.88-3.212-4.32-7.281-4.32-12.208v-1.768
		c0-4.969,1.43-9.092,4.288-12.369c2.86-3.277,6.324-4.916,10.395-4.916c4.261,0,7.613,1.35,10.056,4.048s3.662,6.297,3.662,10.795
		v3.276h-24.545v0.93c0,3.91,1.038,7.18,3.116,9.809c2.077,2.629,4.809,3.943,8.192,3.943c2.398,0,4.444-0.332,6.136-0.996
		c1.692-0.664,3.138-1.617,4.338-2.859l1.639,2.634c-1.307,1.376-2.962,2.469-4.964,3.281
		C573.908-75.627,571.525-75.223,568.763-75.223z M568.281-108.024c-2.85,0-5.237,1.083-7.165,3.251s-3.052,4.886-3.373,8.154
		l0.064,0.161h20.369v-0.962c0-3.01-0.89-5.531-2.668-7.56C573.731-107.01,571.321-108.024,568.281-108.024z"/>
	<path fill="#313131" d="M607.257-107.35l-2.858-0.192c-2.421,0-4.407,0.68-5.96,2.04c-1.553,1.36-2.661,3.229-3.325,5.606v24
		h-3.855v-34.762h3.373l0.482,5.783v0.385c1.007-2.141,2.355-3.812,4.048-5.011s3.706-1.8,6.04-1.8c0.492,0,0.969,0.038,1.431,0.113
		c0.459,0.076,0.839,0.155,1.14,0.241L607.257-107.35z"/>
	<path fill="#313131" d="M622.364-119.559v8.9h7.646v3.148h-7.646v22.65c0,2.27,0.412,3.882,1.237,4.835
		c0.824,0.953,1.922,1.43,3.293,1.43c0.621,0,1.226-0.027,1.815-0.081c0.589-0.053,1.269-0.145,2.039-0.273l0.579,2.86
		c-0.643,0.278-1.425,0.492-2.346,0.643c-0.921,0.149-1.842,0.224-2.763,0.224c-2.441,0-4.343-0.771-5.703-2.313
		c-1.36-1.542-2.039-3.984-2.039-7.325v-22.65h-6.009v-3.148h6.009v-8.9H622.364z"/>
	<path fill="#313131" d="M644.122-120.619h-3.823v-5.397h3.823V-120.619z M644.122-75.897h-3.823v-34.762h3.823V-75.897z"/>
	<path fill="#313131" d="M677.22-84.749c0-1.625-0.669-3.045-2.008-4.263s-3.754-2.212-7.244-2.981
		c-4.156-0.899-7.224-2.088-9.204-3.566c-1.981-1.477-2.972-3.565-2.972-6.264c0-2.656,1.118-4.899,3.356-6.731
		c2.237-1.831,5.199-2.747,8.884-2.747c3.919,0,7.024,0.97,9.317,2.907c2.291,1.94,3.383,4.365,3.276,7.278l-0.064,0.192h-3.566
		c0-1.906-0.809-3.566-2.425-4.979c-1.618-1.414-3.797-2.12-6.538-2.12c-2.807,0-4.911,0.603-6.313,1.805
		c-1.403,1.205-2.104,2.616-2.104,4.236c0,1.598,0.604,2.92,1.815,3.963c1.21,1.045,3.625,1.961,7.244,2.75
		c4.135,0.924,7.229,2.186,9.285,3.788c2.057,1.601,3.085,3.776,3.085,6.526c0,2.901-1.173,5.249-3.518,7.042
		c-2.347,1.794-5.446,2.69-9.302,2.69c-4.22,0-7.534-1.005-9.943-3.019c-2.41-2.014-3.55-4.413-3.422-7.197l0.064-0.193h3.534
		c0.149,2.496,1.172,4.308,3.068,5.438c1.896,1.13,4.128,1.695,6.698,1.695c2.784,0,4.98-0.609,6.586-1.827
		C676.417-81.544,677.22-83.018,677.22-84.749z"/>
	<path fill="#313131" d="M695.86-120.619h-3.823v-5.397h3.823V-120.619z M695.86-75.897h-3.823v-34.762h3.823V-75.897z"/>
	<path fill="#313131" d="M711.545-110.659l0.354,6.072c1.114-2.142,2.618-3.796,4.515-4.964c1.896-1.167,4.139-1.751,6.729-1.751
		c3.77,0,6.641,1.151,8.611,3.454c1.97,2.303,2.955,5.896,2.955,10.78v21.171h-3.855v-21.182c0-3.992-0.744-6.814-2.232-8.466
		c-1.489-1.653-3.604-2.479-6.345-2.479c-2.698,0-4.899,0.713-6.603,2.141c-1.703,1.427-2.93,3.321-3.679,5.682v24.305h-3.854
		v-34.762H711.545z"/>
	<path fill="#313131" d="M744.9-92.989c0-5.546,1.183-9.985,3.55-13.317c2.366-3.33,5.66-4.996,9.879-4.996
		c2.464,0,4.595,0.541,6.395,1.623c1.799,1.082,3.287,2.608,4.465,4.578l0.45-5.558h3.245v34.312c0,4.477-1.237,8.01-3.711,10.602
		c-2.474,2.592-5.917,3.888-10.329,3.888c-1.671,0-3.448-0.204-5.333-0.61c-1.886-0.407-3.533-0.964-4.947-1.671l0.996-3.245
		c1.37,0.685,2.815,1.205,4.337,1.559c1.521,0.353,3.148,0.53,4.883,0.53c3.385,0,5.938-0.975,7.662-2.923
		c1.725-1.95,2.587-4.659,2.587-8.129v-4.369c-1.179,1.756-2.666,3.112-4.466,4.064c-1.799,0.953-3.898,1.429-6.297,1.429
		c-4.177,0-7.449-1.553-9.815-4.658c-2.367-3.105-3.55-7.25-3.55-12.433V-92.989z M748.756-92.31c0,4.195,0.855,7.545,2.57,10.052
		c1.713,2.506,4.262,3.759,7.646,3.759c2.484,0,4.557-0.574,6.217-1.72c1.659-1.146,2.939-2.726,3.839-4.737v-16.128
		c-0.836-2.032-2.062-3.696-3.679-4.994s-3.722-1.945-6.313-1.945c-3.385,0-5.944,1.398-7.679,4.195
		c-1.735,2.797-2.603,6.411-2.603,10.841V-92.31z"/>
	<path fill="#313131" d="M803.418-75.897v-46.778h13.59c5.719,0,10.441,1.907,14.168,5.719c3.727,3.812,5.59,8.706,5.59,14.682
		v6.008c0,5.998-1.863,10.891-5.59,14.682c-3.727,3.791-8.449,5.687-14.168,5.687H803.418z M807.241-119.397v40.224h9.767
		c4.626,0,8.434-1.616,11.421-4.847c2.988-3.232,4.482-7.32,4.482-12.264v-6.099c0-4.88-1.5-8.936-4.499-12.167
		c-2.998-3.232-6.8-4.848-11.404-4.848H807.241z"/>
	<path fill="#313131" d="M860.226-75.223c-4.349,0-7.962-1.606-10.844-4.819c-2.88-3.212-4.32-7.281-4.32-12.208v-1.768
		c0-4.969,1.43-9.092,4.288-12.369c2.86-3.277,6.324-4.916,10.395-4.916c4.261,0,7.613,1.35,10.056,4.048s3.662,6.297,3.662,10.795
		v3.276h-24.545v0.93c0,3.91,1.038,7.18,3.116,9.809c2.077,2.629,4.809,3.943,8.192,3.943c2.398,0,4.444-0.332,6.136-0.996
		c1.692-0.664,3.138-1.617,4.338-2.859l1.639,2.634c-1.307,1.376-2.962,2.469-4.964,3.281
		C865.371-75.627,862.988-75.223,860.226-75.223z M859.744-108.024c-2.85,0-5.237,1.083-7.165,3.251s-3.052,4.886-3.373,8.154
		l0.064,0.161h20.369v-0.962c0-3.01-0.89-5.531-2.668-7.56C865.194-107.01,862.784-108.024,859.744-108.024z"/>
	<path fill="#313131" d="M903.54-84.749c0-1.625-0.67-3.045-2.008-4.263c-1.339-1.218-3.754-2.212-7.244-2.981
		c-4.156-0.899-7.225-2.088-9.205-3.566c-1.981-1.477-2.972-3.565-2.972-6.264c0-2.656,1.119-4.899,3.357-6.731
		c2.237-1.831,5.199-2.747,8.883-2.747c3.92,0,7.025,0.97,9.317,2.907c2.292,1.94,3.384,4.365,3.277,7.278l-0.064,0.192h-3.566
		c0-1.906-0.809-3.566-2.426-4.979c-1.617-1.414-3.796-2.12-6.538-2.12c-2.806,0-4.91,0.603-6.313,1.805
		c-1.403,1.205-2.104,2.616-2.104,4.236c0,1.598,0.604,2.92,1.815,3.963c1.21,1.045,3.625,1.961,7.244,2.75
		c4.134,0.924,7.229,2.186,9.285,3.788c2.057,1.601,3.085,3.776,3.085,6.526c0,2.901-1.173,5.249-3.519,7.042
		s-5.445,2.69-9.301,2.69c-4.22,0-7.534-1.005-9.943-3.019c-2.41-2.014-3.55-4.413-3.422-7.197l0.064-0.193h3.534
		c0.149,2.496,1.172,4.308,3.067,5.438c1.896,1.13,4.129,1.695,6.699,1.695c2.783,0,4.979-0.609,6.586-1.827
		S903.54-83.018,903.54-84.749z"/>
	<path fill="#313131" d="M922.182-120.619h-3.823v-5.397h3.823V-120.619z M922.182-75.897h-3.823v-34.762h3.823V-75.897z"/>
	<path fill="#313131" d="M932.95-92.989c0-5.546,1.183-9.985,3.55-13.317c2.366-3.33,5.659-4.996,9.879-4.996
		c2.463,0,4.595,0.541,6.395,1.623c1.799,1.082,3.287,2.608,4.465,4.578l0.45-5.558h3.244v34.312c0,4.477-1.236,8.01-3.71,10.602
		c-2.474,2.592-5.917,3.888-10.33,3.888c-1.67,0-3.447-0.204-5.333-0.61c-1.885-0.407-3.533-0.964-4.946-1.671l0.995-3.245
		c1.37,0.685,2.816,1.205,4.337,1.559c1.521,0.353,3.148,0.53,4.884,0.53c3.385,0,5.938-0.975,7.662-2.923
		c1.724-1.95,2.587-4.659,2.587-8.129v-4.369c-1.179,1.756-2.667,3.112-4.467,4.064c-1.799,0.953-3.897,1.429-6.297,1.429
		c-4.176,0-7.448-1.553-9.814-4.658c-2.367-3.105-3.55-7.25-3.55-12.433V-92.989z M936.805-92.31c0,4.195,0.856,7.545,2.57,10.052
		c1.714,2.506,4.263,3.759,7.647,3.759c2.483,0,4.557-0.574,6.216-1.72c1.66-1.146,2.939-2.726,3.84-4.737v-16.128
		c-0.836-2.032-2.063-3.696-3.68-4.994c-1.616-1.297-3.722-1.945-6.313-1.945c-3.384,0-5.943,1.398-7.679,4.195
		c-1.734,2.797-2.603,6.411-2.603,10.841V-92.31z"/>
	<path fill="#313131" d="M976.168-110.659l0.354,6.072c1.114-2.142,2.618-3.796,4.514-4.964c1.896-1.167,4.139-1.751,6.73-1.751
		c3.77,0,6.641,1.151,8.611,3.454c1.97,2.303,2.955,5.896,2.955,10.78v21.171h-3.855v-21.182c0-3.992-0.744-6.814-2.232-8.466
		c-1.489-1.653-3.604-2.479-6.345-2.479c-2.698,0-4.899,0.713-6.603,2.141c-1.703,1.427-2.93,3.321-3.679,5.682v24.305h-3.855
		v-34.762H976.168z"/>
	<path fill="#313131" d="M1024.078-75.223c-4.35,0-7.963-1.606-10.844-4.819c-2.881-3.212-4.321-7.281-4.321-12.208v-1.768
		c0-4.969,1.43-9.092,4.289-12.369s6.324-4.916,10.394-4.916c4.261,0,7.613,1.35,10.056,4.048s3.663,6.297,3.663,10.795v3.276
		h-24.546v0.93c0,3.91,1.038,7.18,3.116,9.809c2.078,2.629,4.809,3.943,8.193,3.943c2.397,0,4.443-0.332,6.135-0.996
		c1.692-0.664,3.139-1.617,4.338-2.859l1.639,2.634c-1.307,1.376-2.962,2.469-4.964,3.281
		C1029.223-75.627,1026.84-75.223,1024.078-75.223z M1023.596-108.024c-2.85,0-5.236,1.083-7.165,3.251
		c-1.928,2.168-3.052,4.886-3.373,8.154l0.064,0.161h20.369v-0.962c0-3.01-0.89-5.531-2.668-7.56
		C1029.046-107.01,1026.637-108.024,1023.596-108.024z"/>
	<path fill="#313131" d="M1062.573-107.35l-2.859-0.192c-2.421,0-4.407,0.68-5.96,2.04c-1.553,1.36-2.661,3.229-3.325,5.606v24
		h-3.854v-34.762h3.373l0.481,5.783v0.385c1.007-2.141,2.355-3.812,4.049-5.011c1.691-1.199,3.705-1.8,6.039-1.8
		c0.493,0,0.969,0.038,1.431,0.113c0.459,0.076,0.84,0.155,1.14,0.241L1062.573-107.35z"/>
</g>
<g>
	<path fill="#EE2524" d="M36.912,184.32H10.773l54.355-147.01h26.248L36.912,184.32z"/>
	<path fill="#313131" d="M195.301,147.944c0-4.837-1.602-8.575-4.805-11.214c-3.205-2.639-8.953-5.434-17.246-8.387
		c-17.34-5.466-30.188-11.323-38.543-17.576c-8.357-6.25-12.533-15.28-12.533-27.093c0-11.497,4.979-20.794,14.938-27.894
		c9.955-7.1,22.6-10.649,37.93-10.649c15.203,0,27.658,3.911,37.365,11.732c9.705,7.822,14.402,17.891,14.088,30.203l-0.189,0.565
		h-30.908c0-5.466-1.855-9.909-5.561-13.335c-3.707-3.423-8.828-5.136-15.361-5.136c-6.406,0-11.434,1.414-15.078,4.241
		c-3.643,2.827-5.465,6.313-5.465,10.46c0,4.021,1.838,7.242,5.514,9.659c3.674,2.42,10.568,5.451,20.684,9.094
		c15.58,4.65,27.313,10.366,35.197,17.151s11.828,16.114,11.828,27.988c0,12.063-4.697,21.502-14.088,28.318
		c-9.393,6.817-21.85,10.225-37.365,10.225c-15.582,0-29.059-3.91-40.43-11.732c-11.371-7.821-16.9-19.083-16.584-33.784
		l0.188-0.564h31.004c0,7.915,2.135,13.569,6.408,16.962c4.271,3.393,10.742,5.089,19.414,5.089c6.596,0,11.51-1.319,14.748-3.958
		C193.684,155.672,195.301,152.218,195.301,147.944z"/>
	<path fill="#313131" d="M289.162,186.299c-15.018,0-26.998-4.712-35.951-14.135c-8.953-9.424-13.43-21.234-13.43-35.434v-3.581
		c0-15.517,4.066-28.191,12.203-38.024c8.137-9.832,19.775-14.716,34.916-14.654c13.82,0,24.656,4.146,32.512,12.439
		c7.854,8.293,11.779,19.539,11.779,33.737v16.68h-58.238l-0.189,0.565c0.691,5.216,2.828,9.503,6.408,12.863
		c3.582,3.361,8.355,5.042,14.324,5.042c6.031,0,10.854-0.472,14.467-1.414c3.611-0.942,8.182-2.575,13.711-4.9l7.539,19.413
		c-4.461,3.268-10.225,5.984-17.293,8.151C304.852,185.216,297.266,186.299,289.162,186.299z M286.9,104.973
		c-4.586,0-8.027,1.634-10.32,4.9s-3.691,7.633-4.191,13.099l0.281,0.472h27.424v-2.451c0-5.15-1.068-9.108-3.205-11.873
		S291.424,104.973,286.9,104.973z"/>
	<path fill="#313131" d="M340.428,132.396c0-15.328,4.334-27.814,13.004-37.459c8.67-9.644,20.764-14.466,36.281-14.466
		c15.58,0,27.705,4.822,36.377,14.466c8.668,9.645,13.004,22.131,13.004,37.459v1.979c0,15.393-4.336,27.894-13.004,37.506
		c-8.672,9.612-20.732,14.418-36.188,14.418c-15.645,0-27.801-4.806-36.471-14.418s-13.004-22.113-13.004-37.506V132.396z
		 M372.279,134.375c0,8.544,1.334,15.251,4.006,20.119c2.668,4.869,7.209,7.304,13.617,7.304c6.219,0,10.678-2.451,13.381-7.351
		c2.701-4.9,4.053-11.591,4.053-20.072v-1.979c0-8.293-1.352-14.937-4.053-19.931c-2.703-4.995-7.227-7.492-13.57-7.492
		c-6.283,0-10.76,2.514-13.428,7.539c-2.672,5.027-4.006,11.654-4.006,19.884V134.375z"/>
	<path fill="#313131" d="M482.443,82.355l1.225,14.324c3.33-5.089,7.445-9.062,12.346-11.921c4.9-2.858,10.365-4.288,16.396-4.288
		c9.99,0,17.795,3.236,23.418,9.707c5.621,6.471,8.434,16.773,8.434,30.909v63.233H512.41v-63.328c0-5.843-1.211-9.973-3.629-12.392
		c-2.418-2.418-5.982-3.628-10.695-3.628c-2.953,0-5.576,0.534-7.869,1.602c-2.293,1.069-4.256,2.545-5.889,4.43v73.316H452.57
		V82.355H482.443z"/>
	<path fill="#313131" d="M718.225,136.165l0.188,0.565c-0.629,16.083-5.387,28.365-14.275,36.847
		c-8.893,8.481-21.787,12.722-38.686,12.722c-16.963,0-30.754-5.214-41.369-15.644c-10.619-10.428-15.928-23.967-15.928-40.616
		v-28.647c0-16.586,5.104-30.109,15.314-40.569c10.209-10.46,23.479-15.69,39.814-15.69c17.34,0,30.596,4.367,39.768,13.099
		c9.172,8.733,14.355,21.142,15.551,37.225l-0.189,0.565h-31.004c-0.441-8.921-2.436-15.55-5.984-19.885
		c-3.551-4.335-9.598-6.502-18.141-6.502c-7.225,0-12.91,2.906-17.057,8.717c-4.146,5.812-6.219,13.429-6.219,22.853v28.836
		c0,9.487,2.26,17.151,6.783,22.994s10.744,8.765,18.66,8.765c7.664,0,13.098-2.041,16.303-6.126
		c3.203-4.083,5.025-10.585,5.467-19.507H718.225z"/>
	<path fill="#313131" d="M764.588,94.983c3.078-4.585,6.832-8.151,11.262-10.696c4.43-2.544,9.314-3.816,14.654-3.816
		c10.555,0,18.848,3.676,24.879,11.026c6.031,7.35,9.047,18.753,9.047,34.208v58.615h-31.852v-58.805
		c0-7.789-1.18-13.16-3.535-16.114c-2.355-2.952-5.953-4.429-10.789-4.429c-3.08,0-5.75,0.456-8.012,1.366
		c-2.26,0.912-4.145,2.184-5.654,3.816v74.165h-31.852V37.311h31.852V94.983z"/>
	<path fill="#313131" d="M837.906,132.396c0-15.328,4.334-27.814,13.004-37.459c8.67-9.644,20.764-14.466,36.281-14.466
		c15.58,0,27.705,4.822,36.375,14.466c8.67,9.645,13.006,22.131,13.006,37.459v1.979c0,15.393-4.336,27.894-13.006,37.506
		s-20.73,14.418-36.186,14.418c-15.645,0-27.801-4.806-36.471-14.418s-13.004-22.113-13.004-37.506V132.396z M869.758,134.375
		c0,8.544,1.334,15.251,4.006,20.119c2.668,4.869,7.209,7.304,13.617,7.304c6.219,0,10.678-2.451,13.381-7.351
		c2.701-4.9,4.053-11.591,4.053-20.072v-1.979c0-8.293-1.352-14.937-4.053-19.931c-2.703-4.995-7.227-7.492-13.57-7.492
		c-6.283,0-10.76,2.514-13.428,7.539c-2.672,5.027-4.006,11.654-4.006,19.884V134.375z"/>
	<path fill="#313131" d="M983.973,58.702h-31.945V37.311h31.945V58.702z M983.973,184.32h-31.945V82.355h31.945V184.32z"/>
</g>
<g>
	<path fill="#313131" d="M151.723,254.48c-0.977,1.413-2.752,2.732-5.328,3.955c-2.578,1.225-5.828,1.836-9.748,1.836
		c-5.055,0-9.199-1.721-12.434-5.163c-3.234-3.443-4.85-7.901-4.85-13.375v-7.971c0-5.373,1.537-9.751,4.611-13.134
		c3.074-3.384,7.061-5.075,11.957-5.075c4.676,0,8.332,1.169,10.971,3.507c2.635,2.339,4.164,5.379,4.582,9.119l-0.061,0.18h-3.314
		c-0.516-2.905-1.74-5.258-3.672-7.06c-1.93-1.801-4.766-2.701-8.506-2.701c-3.902,0-7.041,1.411-9.42,4.235
		s-3.568,6.443-3.568,10.857v8.025c0,4.533,1.266,8.252,3.793,11.155c2.527,2.902,5.83,4.354,9.91,4.354
		c2.887,0,5.34-0.401,7.359-1.205c2.02-0.806,3.396-1.685,4.135-2.639v-11.321h-11.553v-3.044h15.135V254.48z"/>
	<path fill="#313131" d="M177.939,230.42l-2.658-0.179c-2.248,0-4.094,0.632-5.537,1.896c-1.443,1.263-2.473,3-3.09,5.208v22.301
		h-3.582v-32.3h3.135l0.447,5.373v0.357c0.936-1.988,2.189-3.542,3.762-4.656s3.443-1.673,5.611-1.673c0.459,0,0.9,0.036,1.33,0.104
		c0.428,0.071,0.781,0.146,1.059,0.225L177.939,230.42z"/>
	<path fill="#313131" d="M205.857,259.646c-0.24-1.095-0.408-2.04-0.508-2.837c-0.1-0.795-0.15-1.602-0.15-2.417
		c-1.193,1.691-2.787,3.094-4.775,4.208c-1.99,1.114-4.23,1.672-6.717,1.672c-3.145,0-5.588-0.835-7.33-2.507
		s-2.611-3.911-2.611-6.718c0-2.984,1.289-5.373,3.867-7.163c2.576-1.791,6.055-2.688,10.432-2.688h7.135v-4
		c0-2.309-0.742-4.12-2.225-5.434s-3.557-1.969-6.223-1.969c-2.488,0-4.553,0.626-6.195,1.88c-1.643,1.253-2.463,2.786-2.463,4.597
		l-3.283-0.03l-0.061-0.179c-0.119-2.408,0.98-4.563,3.301-6.462c2.316-1.901,5.268-2.853,8.85-2.853
		c3.563,0,6.428,0.907,8.598,2.717c2.17,1.812,3.254,4.408,3.254,7.792v15.882c0,1.134,0.064,2.238,0.195,3.313
		c0.129,1.075,0.342,2.141,0.641,3.195H205.857z M194.125,257.108c2.566,0,4.836-0.603,6.807-1.806
		c1.971-1.205,3.393-2.742,4.268-4.613v-6.747h-7.193c-3.244,0-5.838,0.692-7.777,2.075c-1.941,1.383-2.91,3.1-2.91,5.149
		c0,1.751,0.602,3.179,1.807,4.284C190.328,256.555,191.994,257.108,194.125,257.108z"/>
	<path fill="#313131" d="M245.805,244.391c0,4.836-1.094,8.692-3.283,11.567c-2.189,2.876-5.205,4.313-9.045,4.313
		c-2.27,0-4.254-0.429-5.955-1.283c-1.701-0.855-3.092-2.08-4.166-3.672v16.747h-3.58v-44.718h3.014l0.449,5.014
		c1.074-1.791,2.461-3.174,4.164-4.149c1.701-0.974,3.705-1.463,6.014-1.463c3.881,0,6.916,1.548,9.105,4.642
		c2.189,3.096,3.283,7.221,3.283,12.374V244.391z M242.223,243.719c0-4.104-0.814-7.451-2.447-10.042
		c-1.633-2.589-4.02-3.883-7.164-3.883c-2.408,0-4.363,0.571-5.867,1.717c-1.502,1.145-2.633,2.635-3.389,4.468v15.541
		c0.816,1.773,1.996,3.168,3.539,4.183c1.541,1.016,3.467,1.524,5.775,1.524c3.125,0,5.498-1.176,7.121-3.525
		c1.621-2.352,2.432-5.47,2.432-9.354V243.719z"/>
	<path fill="#313131" d="M258.947,232.868c1.074-1.932,2.508-3.434,4.299-4.509c1.791-1.074,3.881-1.612,6.27-1.612
		c3.402,0,6.014,1.056,7.834,3.164c1.822,2.11,2.732,5.385,2.732,9.822v19.912H276.5v-20.012c0-3.51-0.691-6.027-2.074-7.553
		c-1.385-1.525-3.289-2.287-5.717-2.287c-2.449,0-4.494,0.642-6.135,1.929c-1.643,1.287-2.852,2.996-3.627,5.13v22.793h-3.582
		v-46.569h3.582V232.868z"/>
	<path fill="#313131" d="M294.926,218.091h-3.553v-5.015h3.553V218.091z M294.926,259.646h-3.553v-32.3h3.553V259.646z"/>
	<path fill="#313131" d="M318.305,257.227c2.369,0,4.457-0.674,6.27-2.021c1.811-1.349,2.717-3.222,2.717-5.621h3.164l0.059,0.18
		c0.1,2.985-1.094,5.482-3.582,7.493c-2.486,2.011-5.363,3.015-8.627,3.015c-4.398,0-7.797-1.507-10.195-4.522
		c-2.396-3.015-3.596-6.891-3.596-11.628v-1.253c0-4.697,1.203-8.558,3.611-11.583s5.791-4.538,10.15-4.538
		c3.543,0,6.492,1.046,8.852,3.136c2.357,2.089,3.496,4.836,3.418,8.239l-0.061,0.179h-3.193c0-2.587-0.871-4.652-2.613-6.195
		c-1.742-1.542-3.875-2.312-6.402-2.312c-3.463,0-6.025,1.237-7.688,3.712s-2.492,5.59-2.492,9.348v1.253
		c0,3.817,0.826,6.958,2.477,9.423C312.225,255.994,314.803,257.227,318.305,257.227z"/>
	<path fill="#313131" d="M362.797,235.912c-1.611-1.99-2.807-3.807-3.582-5.447c-0.775-1.643-1.164-3.329-1.164-5.061
		c0-3.144,0.887-5.572,2.658-7.284c1.77-1.711,4.199-2.566,7.283-2.566c2.865,0,5.139,0.806,6.82,2.418
		c1.682,1.611,2.523,3.642,2.523,6.089c0,1.792-0.447,3.334-1.344,4.628s-2.189,2.587-3.881,3.88l-4.746,3.643l12.299,14.358
		c0.975-1.412,1.732-2.994,2.27-4.746c0.537-1.751,0.807-3.622,0.807-5.612h3.283c0,2.548-0.363,4.892-1.09,7.03
		c-0.729,2.14-1.777,4.075-3.15,5.806l5.523,6.449l-0.061,0.149h-4.09l-3.641-4.211c-1.693,1.554-3.543,2.748-5.553,3.584
		c-2.012,0.835-4.18,1.253-6.508,1.253c-4.16,0-7.453-1.064-9.881-3.194c-2.43-2.129-3.643-4.965-3.643-8.508
		c0-2.388,0.721-4.541,2.164-6.463c1.443-1.92,3.527-3.876,6.254-5.866L362.797,235.912z M367.455,257.227
		c1.83,0,3.617-0.355,5.359-1.065c1.74-0.712,3.307-1.729,4.701-3.053l-12.359-14.39c-0.1-0.1-0.184-0.186-0.254-0.254
		c-0.07-0.069-0.125-0.145-0.164-0.224l-1.404,1.073c-2.307,1.867-3.855,3.557-4.641,5.066c-0.787,1.51-1.18,2.901-1.18,4.172
		c0,2.465,0.85,4.526,2.553,6.186C361.768,256.398,364.23,257.227,367.455,257.227z M361.633,225.346
		c0,1.313,0.314,2.676,0.941,4.089s1.586,2.916,2.881,4.508l5.283-3.941c1.154-0.896,1.975-1.83,2.463-2.807
		c0.488-0.974,0.73-2.018,0.73-3.134c0-1.571-0.521-2.875-1.566-3.91c-1.045-1.034-2.502-1.552-4.373-1.552
		c-2.031,0-3.596,0.646-4.701,1.94C362.186,221.832,361.633,223.435,361.633,225.346z"/>
	<path fill="#313131" d="M435.799,247.524h-19.912l-4.479,12.121h-3.701l16.508-43.466h3.373l16.389,43.466h-3.701L435.799,247.524z
		 M417.08,244.331h17.555l-8.658-23.523h-0.18L417.08,244.331z"/>
	<path fill="#313131" d="M449.775,243.763c0-5.153,1.09-9.278,3.268-12.374c2.18-3.094,5.219-4.642,9.121-4.642
		c2.248,0,4.199,0.479,5.85,1.433c1.652,0.956,3.025,2.309,4.121,4.062v-19.165h3.553v46.569h-3.166l-0.297-4.688
		c-1.074,1.712-2.459,3.024-4.15,3.939c-1.691,0.917-3.684,1.374-5.971,1.374c-3.861,0-6.881-1.438-9.061-4.313
		c-2.178-2.875-3.268-6.731-3.268-11.567V243.763z M453.357,244.395c0,3.917,0.779,7.035,2.342,9.354
		c1.563,2.318,3.918,3.478,7.061,3.478c2.309,0,4.234-0.52,5.777-1.558c1.541-1.04,2.742-2.479,3.598-4.318v-15.231
		c-0.816-1.879-1.971-3.402-3.463-4.571c-1.492-1.171-3.443-1.754-5.852-1.754c-3.145,0-5.508,1.294-7.09,3.882
		c-1.582,2.589-2.373,5.951-2.373,10.088V244.395z"/>
	<path fill="#313131" d="M495.934,251.555l1.045,3.791h0.178l1.135-3.791l8.775-24.209h3.703l-12.27,32.3h-2.865l-12.299-32.3h3.701
		L495.934,251.555z"/>
	<path fill="#313131" d="M529.91,260.271c-4.041,0-7.398-1.492-10.076-4.478c-2.676-2.985-4.014-6.766-4.014-11.344v-1.643
		c0-4.617,1.328-8.448,3.984-11.492c2.658-3.045,5.877-4.568,9.658-4.568c3.959,0,7.074,1.254,9.344,3.762s3.402,5.851,3.402,10.031
		v3.044h-22.807v0.864c0,3.633,0.965,6.672,2.896,9.114c1.93,2.444,4.467,3.664,7.611,3.664c2.229,0,4.129-0.308,5.701-0.925
		s2.916-1.503,4.031-2.656l1.521,2.447c-1.213,1.278-2.752,2.295-4.611,3.048C534.691,259.896,532.477,260.271,529.91,260.271z
		 M529.463,229.794c-2.648,0-4.867,1.006-6.658,3.021s-2.836,4.539-3.133,7.576l0.059,0.149h18.928v-0.894
		c0-2.798-0.828-5.14-2.48-7.025C534.527,230.735,532.287,229.794,529.463,229.794z"/>
	<path fill="#313131" d="M565.678,230.42l-2.656-0.179c-2.248,0-4.094,0.632-5.537,1.896c-1.443,1.263-2.473,3-3.09,5.208v22.301
		h-3.582v-32.3h3.135l0.447,5.373v0.357c0.936-1.988,2.189-3.542,3.762-4.656s3.443-1.673,5.611-1.673c0.457,0,0.9,0.036,1.33,0.104
		c0.426,0.071,0.779,0.146,1.059,0.225L565.678,230.42z"/>
	<path fill="#313131" d="M579.715,219.075v8.271h7.105v2.925h-7.105v21.046c0,2.109,0.383,3.606,1.15,4.492
		c0.766,0.886,1.785,1.328,3.061,1.328c0.576,0,1.139-0.025,1.686-0.074c0.547-0.05,1.18-0.134,1.895-0.254l0.539,2.657
		c-0.598,0.259-1.324,0.457-2.18,0.597s-1.711,0.209-2.566,0.209c-2.27,0-4.035-0.716-5.301-2.148
		c-1.264-1.435-1.895-3.703-1.895-6.807v-21.046h-5.582v-2.925h5.582v-8.271H579.715z"/>
	<path fill="#313131" d="M599.932,218.091h-3.551v-5.015h3.551V218.091z M599.932,259.646h-3.551v-32.3h3.551V259.646z"/>
	<path fill="#313131" d="M630.686,251.421c0-1.511-0.621-2.831-1.865-3.962c-1.244-1.132-3.488-2.056-6.73-2.771
		c-3.861-0.836-6.713-1.94-8.553-3.313c-1.842-1.373-2.762-3.313-2.762-5.82c0-2.468,1.039-4.553,3.119-6.255
		c2.078-1.7,4.832-2.553,8.254-2.553c3.643,0,6.527,0.901,8.658,2.701c2.129,1.803,3.143,4.057,3.045,6.763l-0.061,0.18h-3.314
		c0-1.771-0.75-3.314-2.252-4.628c-1.504-1.313-3.527-1.969-6.076-1.969c-2.607,0-4.563,0.559-5.865,1.677
		c-1.305,1.119-1.955,2.431-1.955,3.936c0,1.485,0.561,2.714,1.686,3.683c1.125,0.971,3.369,1.823,6.732,2.556
		c3.842,0.858,6.717,2.03,8.627,3.519s2.867,3.51,2.867,6.065c0,2.694-1.09,4.876-3.27,6.543s-5.061,2.5-8.643,2.5
		c-3.92,0-7-0.935-9.238-2.806c-2.24-1.871-3.299-4.1-3.18-6.687l0.059-0.18h3.285c0.139,2.318,1.088,4.002,2.85,5.053
		c1.762,1.049,3.836,1.574,6.225,1.574c2.588,0,4.627-0.565,6.119-1.697S630.686,253.028,630.686,251.421z"/>
	<path fill="#313131" d="M648.006,218.091h-3.551v-5.015h3.551V218.091z M648.006,259.646h-3.551v-32.3h3.551V259.646z"/>
	<path fill="#313131" d="M662.58,227.346l0.328,5.641c1.035-1.989,2.434-3.526,4.195-4.612c1.762-1.084,3.846-1.627,6.254-1.627
		c3.502,0,6.17,1.07,8,3.21s2.746,5.477,2.746,10.016v19.673h-3.582v-19.683c0-3.71-0.691-6.331-2.074-7.866
		c-1.385-1.536-3.348-2.303-5.895-2.303c-2.508,0-4.553,0.662-6.137,1.988c-1.582,1.326-2.721,3.086-3.418,5.279v22.584h-3.58v-32.3
		H662.58z"/>
	<path fill="#313131" d="M693.574,243.763c0-5.153,1.098-9.278,3.297-12.374c2.199-3.094,5.26-4.642,9.18-4.642
		c2.289,0,4.27,0.503,5.941,1.508s3.055,2.424,4.15,4.254l0.418-5.163h3.016v31.881c0,4.16-1.15,7.443-3.449,9.852
		s-5.498,3.612-9.598,3.612c-1.553,0-3.203-0.189-4.955-0.566c-1.752-0.38-3.283-0.896-4.598-1.554l0.926-3.015
		c1.273,0.637,2.617,1.12,4.029,1.448c1.414,0.328,2.926,0.492,4.537,0.492c3.146,0,5.52-0.905,7.121-2.716
		c1.602-1.813,2.402-4.329,2.402-7.554v-4.06c-1.094,1.632-2.477,2.892-4.148,3.776s-3.623,1.328-5.852,1.328
		c-3.881,0-6.922-1.443-9.121-4.328c-2.199-2.886-3.297-6.737-3.297-11.553V243.763z M697.156,244.395
		c0,3.897,0.795,7.012,2.389,9.34c1.592,2.328,3.959,3.492,7.104,3.492c2.309,0,4.234-0.532,5.777-1.598
		c1.541-1.065,2.73-2.533,3.566-4.402V236.24c-0.775-1.888-1.914-3.435-3.418-4.64c-1.502-1.205-3.457-1.807-5.865-1.807
		c-3.145,0-5.523,1.298-7.135,3.896c-1.613,2.6-2.418,5.957-2.418,10.073V244.395z"/>
	<path fill="#313131" d="M747.947,259.646V216.18h12.627c5.314,0,9.701,1.772,13.164,5.314s5.195,8.089,5.195,13.643v5.582
		c0,5.573-1.732,10.119-5.195,13.642s-7.85,5.285-13.164,5.285H747.947z M751.5,219.226V256.6h9.074c4.299,0,7.836-1.5,10.611-4.503
		c2.777-3.004,4.166-6.802,4.166-11.396v-5.667c0-4.535-1.395-8.302-4.18-11.304c-2.787-3.004-6.318-4.505-10.598-4.505H751.5z"/>
	<path fill="#313131" d="M800.73,260.271c-4.039,0-7.396-1.492-10.074-4.478c-2.676-2.985-4.016-6.766-4.016-11.344v-1.643
		c0-4.617,1.328-8.448,3.984-11.492c2.658-3.045,5.877-4.568,9.658-4.568c3.959,0,7.074,1.254,9.344,3.762s3.404,5.851,3.404,10.031
		v3.044h-22.807v0.864c0,3.633,0.963,6.672,2.895,9.114c1.93,2.444,4.469,3.664,7.611,3.664c2.23,0,4.131-0.308,5.703-0.925
		s2.914-1.503,4.029-2.656l1.523,2.447c-1.215,1.278-2.752,2.295-4.613,3.048C805.512,259.896,803.299,260.271,800.73,260.271z
		 M800.283,229.794c-2.646,0-4.865,1.006-6.656,3.021s-2.836,4.539-3.135,7.576l0.061,0.149h18.926v-0.894
		c0-2.798-0.826-5.14-2.479-7.025S803.109,229.794,800.283,229.794z"/>
	<path fill="#313131" d="M840.979,251.421c0-1.511-0.623-2.831-1.865-3.962c-1.244-1.132-3.488-2.056-6.732-2.771
		c-3.861-0.836-6.713-1.94-8.553-3.313c-1.842-1.373-2.762-3.313-2.762-5.82c0-2.468,1.041-4.553,3.121-6.255
		c2.078-1.7,4.83-2.553,8.254-2.553c3.641,0,6.527,0.901,8.656,2.701c2.131,1.803,3.145,4.057,3.045,6.763l-0.059,0.18h-3.314
		c0-1.771-0.752-3.314-2.254-4.628s-3.527-1.969-6.074-1.969c-2.607,0-4.563,0.559-5.867,1.677
		c-1.303,1.119-1.955,2.431-1.955,3.936c0,1.485,0.563,2.714,1.688,3.683c1.125,0.971,3.369,1.823,6.73,2.556
		c3.842,0.858,6.719,2.03,8.629,3.519s2.865,3.51,2.865,6.065c0,2.694-1.09,4.876-3.27,6.543s-5.059,2.5-8.641,2.5
		c-3.922,0-7.002-0.935-9.24-2.806c-2.24-1.871-3.299-4.1-3.18-6.687l0.061-0.18h3.283c0.139,2.318,1.09,4.002,2.85,5.053
		c1.764,1.049,3.838,1.574,6.227,1.574c2.586,0,4.627-0.565,6.119-1.697S840.979,253.028,840.979,251.421z"/>
	<path fill="#313131" d="M858.299,218.091h-3.551v-5.015h3.551V218.091z M858.299,259.646h-3.551v-32.3h3.551V259.646z"/>
	<path fill="#313131" d="M868.305,243.763c0-5.153,1.1-9.278,3.299-12.374c2.199-3.094,5.26-4.642,9.18-4.642
		c2.289,0,4.27,0.503,5.941,1.508s3.055,2.424,4.148,4.254l0.418-5.163h3.016v31.881c0,4.16-1.148,7.443-3.447,9.852
		s-5.498,3.612-9.6,3.612c-1.551,0-3.203-0.189-4.955-0.566c-1.75-0.38-3.283-0.896-4.596-1.554l0.926-3.015
		c1.271,0.637,2.615,1.12,4.029,1.448s2.926,0.492,4.537,0.492c3.145,0,5.518-0.905,7.119-2.716
		c1.602-1.813,2.404-4.329,2.404-7.554v-4.06c-1.096,1.632-2.479,2.892-4.15,3.776s-3.621,1.328-5.852,1.328
		c-3.879,0-6.92-1.443-9.119-4.328c-2.199-2.886-3.299-6.737-3.299-11.553V243.763z M871.887,244.395
		c0,3.897,0.797,7.012,2.389,9.34s3.961,3.492,7.105,3.492c2.309,0,4.234-0.532,5.775-1.598c1.543-1.065,2.732-2.533,3.568-4.402
		V236.24c-0.777-1.888-1.916-3.435-3.418-4.64s-3.459-1.807-5.867-1.807c-3.143,0-5.521,1.298-7.135,3.896
		c-1.611,2.6-2.418,5.957-2.418,10.073V244.395z"/>
	<path fill="#313131" d="M908.463,227.346l0.328,5.641c1.035-1.989,2.434-3.526,4.193-4.612c1.764-1.084,3.846-1.627,6.254-1.627
		c3.504,0,6.172,1.07,8.002,3.21s2.746,5.477,2.746,10.016v19.673h-3.582v-19.683c0-3.71-0.691-6.331-2.074-7.866
		c-1.385-1.536-3.35-2.303-5.896-2.303c-2.506,0-4.553,0.662-6.135,1.988s-2.723,3.086-3.418,5.279v22.584h-3.582v-32.3H908.463z"/>
	<path fill="#313131" d="M952.98,260.271c-4.043,0-7.4-1.492-10.076-4.478c-2.678-2.985-4.016-6.766-4.016-11.344v-1.643
		c0-4.617,1.328-8.448,3.986-11.492c2.656-3.045,5.875-4.568,9.656-4.568c3.959,0,7.074,1.254,9.344,3.762s3.404,5.851,3.404,10.031
		v3.044h-22.809v0.864c0,3.633,0.965,6.672,2.896,9.114c1.93,2.444,4.467,3.664,7.613,3.664c2.227,0,4.129-0.308,5.699-0.925
		c1.572-0.617,2.916-1.503,4.031-2.656l1.523,2.447c-1.215,1.278-2.754,2.295-4.613,3.048
		C957.76,259.896,955.547,260.271,952.98,260.271z M952.531,229.794c-2.648,0-4.865,1.006-6.658,3.021
		c-1.791,2.015-2.834,4.539-3.133,7.576l0.059,0.149h18.928v-0.894c0-2.798-0.826-5.14-2.479-7.025S955.357,229.794,952.531,229.794
		z"/>
	<path fill="#313131" d="M988.748,230.42l-2.656-0.179c-2.25,0-4.096,0.632-5.537,1.896c-1.443,1.263-2.473,3-3.09,5.208v22.301
		h-3.582v-32.3h3.135l0.447,5.373v0.357c0.936-1.988,2.188-3.542,3.762-4.656c1.572-1.114,3.443-1.673,5.611-1.673
		c0.459,0,0.9,0.036,1.33,0.104c0.426,0.071,0.779,0.146,1.059,0.225L988.748,230.42z"/>
</g>
<text transform="matrix(1 0 0 1 25 -524.9629)"><tspan x="0" y="0" fill="#313131" font-family="'Roboto-Black'" font-size="207.7078" letter-spacing="20">/</tspan><tspan x="93.691" y="0" fill="#313131" font-family="'Roboto-Black'" font-size="207.7078">Seon Choi</tspan></text>
<text transform="matrix(1 0 0 1 27 -443.8076)" fill="#313131" font-family="'Roboto-Light'" font-size="66.1227" letter-spacing="1">Graphic &amp; Advertising Designer</text>
</svg>
