<?xml version="1.0" encoding="utf-8"?>
<!-- Generator: Adobe Illustrator 16.0.0, SVG Export Plug-In . SVG Version: 6.00 Build 0)  -->
<!DOCTYPE svg PUBLIC "-//W3C//DTD SVG 1.1//EN" "http://www.w3.org/Graphics/SVG/1.1/DTD/svg11.dtd">
<svg version="1.1" id="Layer_1" xmlns="http://www.w3.org/2000/svg" xmlns:xlink="http://www.w3.org/1999/xlink" x="0px" y="0px"
	 width="512px" height="512px" viewBox="0 0 512 512" enable-background="new 0 0 512 512" xml:space="preserve">
<rect x="164.262" y="181.6" fill="#606060" width="33.119" height="170.4"/>
<g>
	<defs>
		<rect id="SVGID_1_" x="0.06" width="511.94" height="512"/>
	</defs>
	<clipPath id="SVGID_2_">
		<use xlink:href="#SVGID_1_"  overflow="visible"/>
	</clipPath>
	<path clip-path="url(#SVGID_2_)" fill="#606060" d="M512,512H0V0h512V512z M30,482h452V30H30V482z"/>
</g>
<path fill="#606060" d="M280.422,354.4c-36.922,0-59.761-30.775-59.761-65.28c0-39.12,26.339-65.04,56.16-65.04
	c25.262,0,38.316,17.04,42.479,24.24V176.8h32.16v138.24c0,3.36,4.718,9.442,7.44,9.6V352c-5.604,1.118-10.163,1.68-13.682,1.68
	c-23.221,0-21.119-23.52-21.119-23.52C319.459,338.163,305.625,354.4,280.422,354.4 M288.821,327.04
	c20.179,0,29.357-18.079,30.479-21.12v-30c-1.282-3.518-12.801-24.48-32.398-24.48c-21.901,0-32.88,21.727-32.88,38.4
	C254.021,308.167,267.5,327.04,288.821,327.04z"/>
</svg>
