<?xml version="1.0" encoding="utf-8"?>
<!-- Generator: Adobe Illustrator 16.0.0, SVG Export Plug-In . SVG Version: 6.00 Build 0)  -->
<!DOCTYPE svg PUBLIC "-//W3C//DTD SVG 1.1//EN" "http://www.w3.org/Graphics/SVG/1.1/DTD/svg11.dtd">
<svg version="1.1" id="Layer_1" xmlns="http://www.w3.org/2000/svg" xmlns:xlink="http://www.w3.org/1999/xlink" x="0px" y="0px"
	 width="512px" height="512px" viewBox="0 0 512 512" enable-background="new 0 0 512 512" xml:space="preserve">
<g>
	<defs>
		<rect id="SVGID_1_" x="0.06" width="511.94" height="512"/>
	</defs>
	<clipPath id="SVGID_2_">
		<use xlink:href="#SVGID_1_"  overflow="visible"/>
	</clipPath>
	<path clip-path="url(#SVGID_2_)" fill="#606060" d="M512,512H0V0h512V512z M30,482h452V30H30V482z"/>
</g>
<path fill="#606060" d="M385.059,254.08c-28.29,0-39.359,14.64-42.72,21.84V352h-32.16V226.24h29.521v26.88
	c2.238-4.32,16.319-31.37,45.359-28.32V254.08"/>
<path fill="#606060" d="M287.38,308.08c0,18.17-11.755,43.92-54.96,43.92H150.1V181.6h91.2c17.95,0,38.88,16.275,38.88,43.44
	c0,15.96-8.055,32.585-24.479,39.6C275.5,270,287.38,286.625,287.38,308.08 M183.22,209.92v42.96h44.16
	c12.245,0,20.16-9.63,20.16-21.6c0-12.78-8.04-21.36-18.72-21.36H183.22z M254.02,301.84c0-13.559-10.52-22.8-19.92-22.8h-50.88
	v44.88h49.2C243.25,323.92,254.02,314.875,254.02,301.84z"/>
</svg>
