<?xml version="1.0" encoding="utf-8"?>
<!-- Generator: Adobe Illustrator 16.0.0, SVG Export Plug-In . SVG Version: 6.00 Build 0)  -->
<!DOCTYPE svg PUBLIC "-//W3C//DTD SVG 1.1//EN" "http://www.w3.org/Graphics/SVG/1.1/DTD/svg11.dtd">
<svg version="1.1" id="Layer_1" xmlns="http://www.w3.org/2000/svg" xmlns:xlink="http://www.w3.org/1999/xlink" x="0px" y="0px"
	 width="512px" height="512px" viewBox="0 0 512 512" enable-background="new 0 0 512 512" xml:space="preserve">
<g>
	<defs>
		<rect id="SVGID_1_" x="0.06" width="511.94" height="512"/>
	</defs>
	<clipPath id="SVGID_2_">
		<use xlink:href="#SVGID_1_"  overflow="visible"/>
	</clipPath>
	<path clip-path="url(#SVGID_2_)" fill="#606060" d="M512,512H0V0h512V512z M30,482h452V30H30V482z"/>
</g>
<path fill="#606060" d="M140.862,352V181.6h72.24c33.064,0,54.24,30.4,54.24,56.64c0,30.927-23.509,56.64-53.04,56.64h-40.32V352
	H140.862 M173.982,265.84h38.4c11.618,0,21.36-10.84,21.36-27.6c0-14.4-8.743-27.6-22.8-27.6h-36.96V265.84z"/>
<path fill="#606060" d="M334.779,354.4c-29.029,0-49.681-13.2-56.88-19.44l12-20.16c7.68,5.441,25.351,16.561,44.159,16.561
	c12.191,0,20.641-5.11,20.641-13.92c0-10.815-17.843-14.317-27.601-17.04c-8.159-2.239-44.88-7.4-44.88-35.04
	c0-26.61,23.156-41.521,49.44-41.521c27.591,0,42.318,11.201,49.2,17.28l-12.96,19.439c-6.401-4.8-20.649-13.919-36.48-13.919
	c-11.669,0-19.2,4.985-19.2,14.16c0,11.45,20.078,14.723,24.721,15.84c8.64,2.242,48.72,8.36,48.72,37.92
	C385.659,349.5,350.458,354.4,334.779,354.4"/>
</svg>
