<?xml version="1.0" encoding="utf-8"?>
<!-- Generator: Adobe Illustrator 16.0.0, SVG Export Plug-In . SVG Version: 6.00 Build 0)  -->
<!DOCTYPE svg PUBLIC "-//W3C//DTD SVG 1.1//EN" "http://www.w3.org/Graphics/SVG/1.1/DTD/svg11.dtd">
<svg version="1.1" id="Layer_1" xmlns="http://www.w3.org/2000/svg" xmlns:xlink="http://www.w3.org/1999/xlink" x="0px" y="0px"
	 width="512px" height="512px" viewBox="0 0 512 512" enable-background="new 0 0 512 512" xml:space="preserve">
<g>
	<defs>
		<rect id="SVGID_1_" x="0.06" width="511.94" height="512"/>
	</defs>
	<clipPath id="SVGID_2_">
		<use xlink:href="#SVGID_1_"  overflow="visible"/>
	</clipPath>
	<path clip-path="url(#SVGID_2_)" fill="#606060" d="M512,512H0V0h512V512z M30,482h452V30H30V482z"/>
</g>
<polyline fill="#606060" points="411.119,226.24 441.598,226.24 389.039,352 362.639,352 341.039,296.8 319.679,352 293.279,352 
	240.96,226.24 271.2,226.24 308.639,321.76 323.998,280.96 301.918,226.48 327.838,226.48 341.039,265.12 354.478,226.48 
	380.398,226.48 358.558,280.96 373.678,321.76 411.119,226.24 "/>
<path fill="#606060" d="M86.401,352V181.6h61.921c49.928,0,84,33.15,84,84.959c0,41.44-24.572,85.44-84,85.44H86.401
	 M198.961,266.56c0-34.31-20.461-55.919-50.639-55.919h-28.801v112.32h28.801C178.75,322.96,198.961,298.75,198.961,266.56z"/>
</svg>
