<?xml version="1.0" encoding="utf-8"?>
<!-- Generator: Adobe Illustrator 16.0.0, SVG Export Plug-In . SVG Version: 6.00 Build 0)  -->
<!DOCTYPE svg PUBLIC "-//W3C//DTD SVG 1.1//EN" "http://www.w3.org/Graphics/SVG/1.1/DTD/svg11.dtd">
<svg version="1.1" id="Layer_1" xmlns="http://www.w3.org/2000/svg" xmlns:xlink="http://www.w3.org/1999/xlink" x="0px" y="0px"
	 width="512px" height="512px" viewBox="0 0 512 512" enable-background="new 0 0 512 512" xml:space="preserve">
<g>
	<defs>
		<rect id="SVGID_1_" x="0.06" width="511.94" height="512"/>
	</defs>
	<clipPath id="SVGID_2_">
		<use xlink:href="#SVGID_1_"  overflow="visible"/>
	</clipPath>
	<path clip-path="url(#SVGID_2_)" fill="#606060" d="M512,512H0V0h512V512z M30,482h452V30H30V482z"/>
</g>
<path fill="#606060" d="M156.94,352V181.6h72.24c33.064,0,54.24,30.4,54.24,56.64c0,30.927-23.509,56.64-53.04,56.64h-40.32V352
	H156.94 M190.061,265.84h38.4c11.618,0,21.36-10.84,21.36-27.6c0-14.4-8.743-27.6-22.8-27.6h-36.96V265.84z"/>
<path fill="#606060" d="M378.217,254.08c-28.29,0-39.359,14.64-42.72,21.84V352h-32.16V226.24h29.521v26.88
	c2.238-4.32,16.319-31.37,45.359-28.32V254.08"/>
</svg>
